<svg version="1.2" xmlns="http://www.w3.org/2000/svg" viewBox="0 0 4000 2844" width="2844" height="2022">
	<title>174</title>
	<defs>
		<linearGradient id="g1" x2="1" gradientUnits="userSpaceOnUse"
			gradientTransform="matrix(1183.185,-802.788,1118.612,1648.661,-282.416,2410.086)">
			<stop offset="0" stop-color="#001a26" />
			<stop offset="1" stop-color="#001a26" />
		</linearGradient>
		<linearGradient id="g2" x2="1" gradientUnits="userSpaceOnUse"
			gradientTransform="matrix(4000,0,0,2844.443,-0.497,-0.5)">
			<stop offset="0" stop-color="#001a26" />
			<stop offset="1" stop-color="#001a26" />
		</linearGradient>
	</defs>
	<style>
		.s0 {
			fill: url(#g1)
		}

		.s1 {
			opacity: .3;
			fill: #364152
		}

		.s2 {
			opacity: .5;
			fill: url(#g2)
		}
	</style>
	<g id="_Artboards_">
	</g>
	<g id="Layer 2">
		<g id="Layer 2 2 ">
			<g id="&lt;Group&gt;">
			</g>
		</g>
	</g>
	<g id="Layer 3">
		<path id="&lt;Path&gt;" class="s0"
			d="m1138.1 2843.9h-1138.6v-813.9c170 44.2 338.4 120.3 422.1 249.5 138.1 213 164.9 458.6 445 458.6 96.8 0 190.4 45.8 271.5 105.8z" />
		<path id="&lt;Path&gt;" class="s1"
			d="m1291.3 2181.2c0 24.2-19.6 43.8-43.8 43.8-24.2 0-43.8-19.6-43.8-43.8 0-24.2 19.6-43.8 43.8-43.8 24.2 0 43.8 19.6 43.8 43.8z" />
		<path id="&lt;Path&gt;" class="s1"
			d="m2142.9 507.4c0 19.5-15.7 35.2-35.1 35.2-19.5 0-35.2-15.7-35.2-35.2 0-19.4 15.7-35.1 35.2-35.1 19.4 0 35.1 15.7 35.1 35.1z" />
		<path id="&lt;Path&gt;" class="s1"
			d="m1186 783.3c0 10-8.2 18.1-18.2 18.1-10 0-18.1-8.1-18.1-18.1 0-10 8.1-18.2 18.1-18.2 10 0 18.2 8.2 18.2 18.2z" />
		<path id="&lt;Path&gt;" class="s1"
			d="m3720.5 315.2c0 16.1-13 29.1-29 29.1-16.1 0-29.1-13-29.1-29.1 0-16 13-29 29.1-29 16 0 29 13 29 29z" />
		<path id="&lt;Path&gt;" class="s1"
			d="m316.4 668.2c0 17.5-14.2 31.7-31.7 31.7-17.5 0-31.7-14.2-31.7-31.7 0-17.5 14.2-31.7 31.7-31.7 17.5 0 31.7 14.2 31.7 31.7z" />
		<path id="&lt;Path&gt;" class="s1"
			d="m3159.5 2565.8c0 17.5-14.2 31.6-31.6 31.6-17.5 0-31.6-14.1-31.6-31.6 0-17.4 14.1-31.6 31.6-31.6 17.4 0 31.6 14.2 31.6 31.6z" />
		<path id="&lt;Path&gt;" class="s2"
			d="m-0.5 286.2c0 0 94.9 133.7 527.5 161.7 432.7 28.1 703.8 208 806.6 308.1 102.8 100.1-6.2 297.9 90.4 414 96.6 116.1 405 238.9 460 283.3 139 112.3 141.3 284.6 107.2 396.7-61.7 203.1 2.5 423.8 588.5 402 586-21.9 695.1 18.6 765.2 171.3 70.1 152.7 146.2 317.8 312.2 420.6h342.4v-1127.9c0 0-231 48.6-327.6-40-96.6-88.6-209.7-192.7-205.2-263.4 4.4-70.7-205.5-157.6-428.1-179.3-222.6-21.7-4.7-159.9-380-159.1l-177.5 0.4c-149.7 0.3-294.6-52.7-408.6-149.6-118.1-100.3-240.7-239.7-234.1-382.4 12.4-272.3-1113.4-240.6-966.5-543.1h-872.4z" />
	</g>
</svg>