<svg version="1.2" xmlns="http://www.w3.org/2000/svg" viewBox="0 0 739 364" width="739" height="364"><defs><linearGradient id="P" gradientUnits="userSpaceOnUse"/><linearGradient id="g1" x1="33" y1="83.1" x2="118.5" y2="-56.9" href="#P"><stop offset=".14" stop-color="#0193cc"/><stop offset=".88" stop-color="#01d0cc"/></linearGradient><linearGradient id="g2" x1="71.5" y1="114" x2="157" y2="-26.1" href="#P"><stop offset=".14" stop-color="#0193cc"/><stop offset=".88" stop-color="#01d0cc"/></linearGradient><linearGradient id="g3" x1="133.8" y1="46.4" x2="299.5" y2="245.8" href="#P"><stop offset=".1" stop-color="#662d91"/><stop offset=".83" stop-color="#f0f"/></linearGradient><linearGradient id="g4" x1="97.2" y1="124.7" x2="182.7" y2="-15.4" href="#P"><stop offset=".14" stop-color="#0193cc"/><stop offset=".88" stop-color="#01d0cc"/></linearGradient></defs><style>.a{fill:#0b1f33}.b{fill:#f0f}.c{fill:#fff}.d{fill:url(#g1)}.e{fill:url(#g2)}.f{fill:url(#g3)}.g{fill:url(#g4)}</style><g style="display:none"><path class="a" d="m929 750h-998v-1000h998z"/></g><path class="b" d="m202.1 318.3c6.1 0 9-3.1 9-6.6 0-8.3-13.2-5.2-13.2-9.9 0-1.7 1.4-3.1 4.8-3.1 2 0 4.2 0.6 6.2 1.8l1.3-3.2c-1.9-1.3-4.8-2-7.4-2-6.2 0-9.1 3.1-9.1 6.7 0 8.3 13.3 5.1 13.3 10 0 1.6-1.4 2.9-4.9 2.9-2.8 0-5.6-1.1-7.4-2.5l-1.4 3.2c1.8 1.6 5.3 2.7 8.8 2.7zm51.1-0.3v-22.4h-3.4l-8.8 14.8-8.9-14.8h-3.4v22.4h4v-14.7l7.3 12.1h1.9l7.4-12.2v14.8zm36.2 0h4.4l-10.1-22.4h-4.1l-10.1 22.4h4.3l2.2-5.2h11.2zm-12-8.4l4.2-9.8 4.2 9.8zm51.8 8.4l-5.2-7.3c3.1-1.2 4.8-3.7 4.8-7.1 0-5-3.6-8-9.5-8h-9.2v22.4h4.1v-6.5h5.1c0.3 0 0.6 0 0.8 0l4.6 6.5zm-4.6-14.4c0 2.8-1.8 4.5-5.5 4.5h-4.9v-9h4.9c3.7 0 5.5 1.7 5.5 4.5zm26.5 14.4h4.2v-18.9h7.4v-3.5h-19v3.5h7.4zm60.8 0.4c3.7 0 6.9-1.4 8.9-3.8l-2.7-2.5c-1.6 1.7-3.6 2.6-5.9 2.6-4.7 0-8-3.3-8-7.9 0-4.6 3.3-7.8 8-7.8 2.3 0 4.3 0.8 5.9 2.6l2.7-2.5c-2-2.5-5.2-3.8-8.8-3.8-6.9 0-12 4.8-12 11.5 0 6.7 5.1 11.6 11.9 11.6zm42.1-22.8v9.3h-11.6v-9.3h-4.1v22.4h4.1v-9.6h11.6v9.6h4.2v-22.4zm34.1 22.8c6.9 0 12-4.9 12-11.6 0-6.6-5.1-11.5-12-11.5-7 0-12.1 4.9-12.1 11.5 0 6.7 5.1 11.6 12.1 11.6zm0-3.7c-4.6 0-7.9-3.3-7.9-7.9 0-4.5 3.3-7.8 7.9-7.8 4.5 0 7.8 3.3 7.8 7.8 0 4.6-3.3 7.9-7.8 7.9zm29.9 3.3h4.1v-22.4h-4.1zm34 0.4c3.7 0 6.8-1.4 8.9-3.8l-2.7-2.5c-1.6 1.7-3.6 2.6-6 2.6-4.6 0-8-3.3-8-7.9 0-4.6 3.4-7.8 8-7.8 2.4 0 4.4 0.8 6 2.6l2.7-2.5c-2.1-2.5-5.2-3.8-8.9-3.8-6.9 0-12 4.8-12 11.5 0 6.7 5.1 11.6 12 11.6zm30.5-3.9v-6.1h10.8v-3.5h-10.8v-5.8h12.2v-3.5h-16.4v22.4h16.8v-3.5zm37.7 3.9c6.1 0 9-3.1 9-6.7 0-8.2-13.2-5.1-13.2-9.9 0-1.7 1.4-3 4.8-3 2 0 4.2 0.5 6.2 1.7l1.3-3.2c-1.9-1.3-4.7-2-7.4-2-6.2 0-9.1 3.1-9.1 6.7 0 8.3 13.4 5.2 13.4 10 0 1.7-1.5 2.9-5 2.9-2.8 0-5.6-1-7.4-2.5l-1.4 3.3c1.8 1.6 5.3 2.7 8.8 2.7z"/><path class="c" d="m217.6 271.9c16.9 0 24.9-8.5 24.9-18.3 0-22.6-36.5-14.1-36.5-27.2 0-4.7 3.9-8.4 13.4-8.4 5.4 0 11.4 1.6 17 4.9l3.6-8.9c-5.4-3.5-13.1-5.5-20.5-5.5-16.9 0-24.8 8.5-24.8 18.4 0 22.9 36.6 14.2 36.6 27.5 0 4.5-4.1 8-13.7 8-7.5 0-15.4-2.8-20.3-6.8l-3.9 8.9c5.1 4.4 14.6 7.4 24.2 7.4zm69.8 0c16.8 0 27-9.8 27-27.7v-34.8h-11.3v34.3c0 12.7-5.6 18.1-15.6 18.1-9.9 0-15.7-5.4-15.7-18.1v-34.3h-11.4v34.8c0 17.9 10.1 27.7 27 27.7zm102.6-0.9l-14.1-20.2c8.3-3.3 13.1-10.2 13.1-19.5 0-13.6-10.1-21.9-26.2-21.9h-25.4v61.6h11.4v-18h14c0.7 0 1.5 0 2.3 0l12.6 18zm-12.6-39.7c0 7.8-5.2 12.3-15.2 12.3h-13.4v-24.5h13.4c10 0 15.2 4.5 15.2 12.2zm76.2-21.9l-20.6 47.5-20.5-47.5h-12.5l27 61.6h11.2l26.9-61.6zm36.4 52v-17h29.8v-9.4h-29.8v-16h33.5v-9.6h-44.9v61.6h46.2v-9.6zm104.5-52h-11.3l-18.2 30-18-30h-12.2l24.2 40v21.6h11.4v-21.7zm13.6 61.6h11.5v-61.6h-11.5zm78.5-61.6v41.7l-33.9-41.7h-9.4v61.6h11.3v-41.7l34 41.7h9.4v-61.6z"/><path class="d" d="m140.8 105.2l-45.8 27.4c-6.6 3.8-14.9-0.9-14.9-8.5v-39.9c0-3.5 1.9-6.7 4.9-8.5l45.8-27.4c6.5-3.8 14.8 0.9 14.8 8.5v39.9c0 3.5-1.8 6.7-4.8 8.5z"/><path class="e" d="m217.2 51.7l-40.7 24.4c-5.9 3.4-13.2-0.8-13.2-7.6v-35.4c0-3.1 1.6-6 4.3-7.6l40.7-24.3c5.8-3.4 13.2 0.8 13.2 7.5v35.5c0 3.1-1.7 6-4.3 7.5z"/><path class="f" d="m162.5 249.1l-152.2-89.9-2.1-1.4q-0.6-0.5-1.1-1.2c-1.3-2-1-4.7 0.4-6.6l0.3-0.4c0 0-7.1 4.8-7.2 12.9v103c0 6.8 3.6 13.1 9.5 16.6l132.8 78.5c12.9 7.6 29.1-1.7 29.1-16.6v-78.3c0-6.8-3.6-13.1-9.5-16.6z"/><path class="c" d="m169 102.9l20.1-12v-10q0-1.3-0.2-2.5l-11.9 7.1c-6.1 3.6-13.7-0.8-13.7-7.8v-14.9c-1.1 0.4-2.2 0.9-3.3 1.5l-6.4 3.8v37.7c0 3.9-2.1 7.5-5.4 9.5l-51.4 30.7c-7.4 4.4-16.7-0.9-16.7-9.5v-25l-58.3 34.1-0.3 0.4c-1.4 1.9-1.7 4.6-0.4 6.6q0.5 0.7 1.1 1.2l2.1 1.4 95 56.2 60.3-35.7c4-2.3 6.9-5.9 8.4-10.1l-7.3 4.3c-7.7 4.5-17.4-1-17.4-10v-47c0-4.1 2.1-7.9 5.7-10z"/><path class="g" d="m231.9 128.7l-51.8 31c-7.4 4.3-16.8-1-16.8-9.6v-45.2c0-3.9 2.1-7.6 5.5-9.6l51.8-30.9c7.4-4.4 16.8 0.9 16.8 9.6v45.1c0 4-2.1 7.6-5.5 9.6z"/></svg>