<svg version="1.2" xmlns="http://www.w3.org/2000/svg" viewBox="0 0 320 158" width="320" height="158"><defs><linearGradient id="P" gradientUnits="userSpaceOnUse"/><linearGradient id="g1" x1="14.2" y1="36.1" x2="51.3" y2="-24.7" href="#P"><stop offset=".14" stop-color="#0193cc"/><stop offset=".88" stop-color="#01d0cc"/></linearGradient><linearGradient id="g2" x1="30.9" y1="49.5" x2="68" y2="-11.3" href="#P"><stop offset=".14" stop-color="#0193cc"/><stop offset=".88" stop-color="#01d0cc"/></linearGradient><linearGradient id="g3" x1="57.9" y1="20.2" x2="129.7" y2="106.6" href="#P"><stop offset=".1" stop-color="#662d91"/><stop offset=".83" stop-color="#f0f"/></linearGradient><linearGradient id="g4" x1="42.1" y1="54.1" x2="79.2" y2="-6.7" href="#P"><stop offset=".14" stop-color="#0193cc"/><stop offset=".88" stop-color="#01d0cc"/></linearGradient></defs><style>.a{fill:#0b1f33}.b{fill:#f0f}.c{fill:#fff}.d{fill:url(#g1)}.e{fill:url(#g2)}.f{fill:url(#g3)}.g{fill:url(#g4)}</style><g style="display:none"><path class="a" d="m-29.9-108.5h432.2v434h-432.2z"/></g><path class="b" d="m85.7 138h1.3v-6.1h2.4v-1.2h-6.2v1.2h2.5zm10.4-1.2v-2h3.6v-1.1h-3.6v-1.9h4v-1.1h-5.3v7.3h5.5v-1.2zm9.9 1.2h5.2v-1.2h-3.8v-6.1h-1.4zm10.6 0h5.2v-1.2h-3.8v-6.1h-1.4zm21 0.1c2 0 3.2-1.2 3.2-3.3v-4.1h-1.4v4c0 1.5-0.6 2.2-1.8 2.2-1.2 0-1.9-0.7-1.9-2.2v-4h-1.3v4.1c0 2.1 1.2 3.3 3.2 3.3zm11.7 0c2 0 2.9-1 2.9-2.2 0-2.7-4.3-1.7-4.3-3.2 0-0.6 0.4-1 1.6-1 0.6 0 1.3 0.2 2 0.6l0.4-1.1c-0.6-0.4-1.5-0.6-2.4-0.6-2 0-3 1-3 2.1 0 2.8 4.4 1.7 4.4 3.3 0 0.5-0.5 0.9-1.6 0.9-0.9 0-1.9-0.3-2.4-0.8l-0.5 1.1c0.6 0.5 1.7 0.9 2.9 0.9zm21.8-7.4h-1.3l-2.2 3.5-2.1-3.5h-1.4l2.8 4.7v2.6h1.4v-2.6zm8.3 7.4c2.3 0 3.9-1.6 3.9-3.8 0-2.1-1.6-3.7-3.9-3.7-2.2 0-3.9 1.6-3.9 3.7 0 2.2 1.7 3.8 3.9 3.8zm0-1.2c-1.5 0-2.5-1.1-2.5-2.6 0-1.4 1-2.5 2.5-2.5 1.5 0 2.6 1.1 2.6 2.5 0 1.5-1.1 2.6-2.6 2.6zm12.9 1.2c1.9 0 3.1-1.2 3.1-3.3v-4.1h-1.3v4.1c0 1.5-0.7 2.1-1.8 2.1-1.2 0-1.9-0.6-1.9-2.1v-4.1h-1.3v4.1c0 2.1 1.2 3.3 3.2 3.3zm15.6-0.1l-1.7-2.4c1-0.4 1.6-1.2 1.6-2.3 0-1.6-1.2-2.6-3.1-2.6h-3v7.3h1.3v-2.1h1.7c0.1 0 0.2 0 0.3 0l1.5 2.1zm-1.5-4.7c0 0.9-0.6 1.4-1.8 1.4h-1.6v-2.9h1.6c1.2 0 1.8 0.6 1.8 1.5zm17.8 4.8c1.2 0 2.2-0.4 2.9-1.2l-0.9-0.9c-0.5 0.6-1.2 0.9-1.9 0.9-1.5 0-2.6-1.1-2.6-2.6 0-1.5 1.1-2.5 2.6-2.5 0.7 0 1.4 0.3 1.9 0.8l0.9-0.8c-0.7-0.8-1.7-1.2-2.9-1.2-2.2 0-3.9 1.6-3.9 3.7 0 2.2 1.7 3.8 3.9 3.8zm13.7-7.4v3h-3.8v-3h-1.3v7.3h1.3v-3.1h3.8v3.1h1.3v-7.3zm11.1 7.4c2.2 0 3.9-1.6 3.9-3.8 0-2.1-1.7-3.7-3.9-3.7-2.3 0-3.9 1.6-3.9 3.7 0 2.2 1.6 3.8 3.9 3.8zm0-1.2c-1.5 0-2.6-1.1-2.6-2.6 0-1.4 1.1-2.5 2.6-2.5 1.5 0 2.5 1.1 2.5 2.5 0 1.5-1 2.6-2.5 2.6zm9.7 1.1h1.4v-7.3h-1.4zm11.1 0.1c1.1 0 2.2-0.4 2.8-1.2l-0.8-0.9c-0.6 0.6-1.2 0.9-2 0.9-1.5 0-2.6-1.1-2.6-2.6 0-1.5 1.1-2.5 2.6-2.5 0.8 0 1.4 0.3 2 0.8l0.8-0.8c-0.6-0.8-1.7-1.2-2.8-1.2-2.3 0-3.9 1.6-3.9 3.7 0 2.2 1.6 3.8 3.9 3.8zm9.9-1.2v-2.1h3.5v-1.1h-3.5v-1.9h3.9v-1.1h-5.3v7.3h5.5v-1.1zm12.2 1.2c2 0 2.9-1 2.9-2.2 0-2.6-4.3-1.6-4.3-3.2 0-0.5 0.5-1 1.6-1 0.6 0 1.4 0.2 2 0.6l0.4-1.1c-0.6-0.4-1.5-0.6-2.4-0.6-2 0-2.9 1-2.9 2.2 0 2.7 4.3 1.7 4.3 3.2 0 0.6-0.5 1-1.6 1-0.9 0-1.8-0.4-2.4-0.8l-0.5 1c0.6 0.5 1.8 0.9 2.9 0.9z"/><path class="c" d="m94.2 118.4c7.4 0 10.8-3.7 10.8-8 0-9.8-15.8-6.1-15.8-11.8 0-2 1.7-3.6 5.8-3.6 2.3 0 5 0.7 7.4 2.1l1.5-3.9c-2.3-1.5-5.7-2.3-8.9-2.3-7.3 0-10.7 3.6-10.7 8 0 9.9 15.8 6.1 15.8 11.9 0 2-1.7 3.5-5.9 3.5-3.2 0-6.6-1.3-8.8-3l-1.7 3.9c2.2 1.9 6.4 3.2 10.5 3.2zm30.3 0c7.2 0 11.6-4.3 11.6-12.1v-15h-4.9v14.9c0 5.5-2.4 7.8-6.7 7.8-4.3 0-6.8-2.3-6.8-7.8v-14.9h-4.9v15c0 7.8 4.3 12.1 11.7 12.1zm44.4-0.4l-6.1-8.8c3.6-1.4 5.6-4.4 5.6-8.4 0-5.9-4.3-9.5-11.3-9.5h-11v26.7h5v-7.8h6c0.3 0 0.7 0 1 0l5.5 7.8zm-5.5-17.2c0 3.3-2.2 5.3-6.6 5.3h-5.8v-10.6h5.8c4.4 0 6.6 1.9 6.6 5.3zm33-9.5l-8.9 20.6-8.9-20.6h-5.4l11.7 26.7h4.8l11.7-26.7zm15.7 22.5v-7.3h12.9v-4.1h-12.9v-7h14.6v-4.1h-19.5v26.7h20v-4.2zm45.3-22.5h-4.9l-7.9 13-7.8-13h-5.3l10.5 17.3v9.4h4.9v-9.4zm5.9 26.7h5v-26.7h-5zm34-26.8v18.1l-14.7-18.1h-4.1v26.8h4.9v-18.1l14.8 18.1h4v-26.8z"/><path class="d" d="m61 45.7l-19.9 11.8c-2.8 1.7-6.4-0.3-6.4-3.6v-17.4c0-1.5 0.8-2.9 2.1-3.6l19.8-11.9c2.9-1.7 6.5 0.3 6.5 3.7v17.3c0 1.5-0.8 2.9-2.1 3.7z"/><path class="e" d="m94 22.5l-17.6 10.5c-2.5 1.5-5.7-0.3-5.7-3.3v-15.3c0-1.4 0.7-2.6 1.9-3.3l17.6-10.6c2.5-1.5 5.7 0.4 5.7 3.3v15.4c0 1.3-0.7 2.6-1.9 3.3z"/><path class="f" d="m70.4 108.1l-65.9-39-0.9-0.6q-0.3-0.2-0.5-0.5c-0.6-0.9-0.5-2.1 0.1-2.9l0.2-0.2c0 0-3.1 2.1-3.1 5.6v44.7c0 3 1.5 5.7 4.1 7.2l57.5 34.1c5.6 3.3 12.6-0.7 12.6-7.2v-34c0-2.9-1.6-5.7-4.1-7.2z"/><path class="c" d="m73.2 44.7l8.7-5.2v-4.4q0-0.5-0.1-1.1l-5.2 3.1c-2.6 1.6-5.9-0.3-5.9-3.4v-6.4q-0.7 0.2-1.4 0.6l-2.8 1.7v16.3c0 1.7-0.9 3.3-2.3 4.2l-22.3 13.3c-3.2 1.9-7.2-0.4-7.2-4.1v-10.9l-25.3 14.8-0.1 0.2c-0.6 0.8-0.7 2-0.2 2.8q0.2 0.4 0.5 0.6l0.9 0.6 41.2 24.3 26.1-15.4c1.7-1 2.9-2.6 3.6-4.4l-3.1 1.8c-3.4 2-7.6-0.4-7.6-4.3v-20.4c0-1.8 0.9-3.4 2.5-4.3z"/><path class="g" d="m100.4 55.9l-22.4 13.4c-3.2 1.9-7.3-0.4-7.3-4.2v-19.6c0-1.7 0.9-3.2 2.4-4.1l22.4-13.5c3.2-1.9 7.3 0.5 7.3 4.2v19.6c0 1.7-0.9 3.3-2.4 4.2z"/></svg>