<svg version="1.2" xmlns="http://www.w3.org/2000/svg" viewBox="0 0 355 105" width="355" height="105">
	<title>logo-culture-comminity-svg</title>
	<style>
		tspan { white-space:pre } 
		.s0 { fill: #2192ce } 
		.s1 { fill: #168bbf } 
		.s2 { fill: #d91277 } 
		.s3 { fill: #c61074 } 
		.s4 { fill: #232323 } 
		.s5 { fill: #000000 } 
		.s6 { fill: #f7c210 } 
		.s7 { fill: #eab00f } 
		.t8 { font-size: 34px;fill: #000000;font-weight: 800;font-family: "' Montserrat" } 
		.t9 { font-size: 19px;fill: #818384;font-family: "' Montserrat" } 
	</style>
	<g id="OBJECTS">
		<g id="Layer">
			<g id="Layer">
				<g id="Layer">
					<g id="Layer">
						<path id="Layer" class="s0" d="m81.2 23.9c8.3 8.4 13 18.8 13.5 28.6q0.9-0.7 1.7-1.5c11.7-11.7 11.7-30.6 0-42.3-11.7-11.7-30.6-11.7-42.3 0q-0.8 0.8-1.5 1.6c9.8 0.6 20.2 5.2 28.6 13.6z"/>
					</g>
					<g id="Layer">
						<path id="Layer" class="s1" d="m102 20q1.2 1.3 2.2 2.6c-1.2-5.1-3.9-9.9-7.8-13.9-11.7-11.7-30.6-11.7-42.3 0q-0.8 0.8-1.5 1.6c3.2 0.2 6.5 0.9 9.8 2 13.1-5.4 29.5-2.3 39.6 7.7z"/>
					</g>
				</g>
				<path id="Layer" class="s0" d="m74.1 45.1c-7.8 0-14.1-6.3-14.1-14.2 0-7.8 6.3-14.1 14.1-14.1 7.9 0 14.2 6.3 14.2 14.1 0 7.9-6.3 14.2-14.2 14.2z"/>
			</g>
			<g id="Layer">
				<g id="Layer">
					<g id="Layer">
						<path id="Layer" class="s2" d="m24.8 23.9c8.4-8.4 18.9-13 28.6-13.6q-0.7-0.8-1.5-1.6c-11.7-11.7-30.6-11.7-42.3 0-11.7 11.7-11.7 30.6 0 42.3q0.8 0.8 1.7 1.5c0.5-9.8 5.2-20.2 13.5-28.6z"/>
					</g>
					<g id="Layer">
						<g id="Layer">
							<path id="Layer" class="s3" d="m12.2 38.6q-0.6-4.5-1.2-9.1 0-9.5 4.7-17.7 2.9-3.9 5.8-7.7 2-2.1 4.2-3.7c-5.9 1-11.5 3.8-16.1 8.3-11.7 11.7-11.7 30.6 0 42.3q0.8 0.8 1.7 1.5c0.2-3.4 0.9-6.9 2-10.3q-0.6-1.8-1.1-3.6z"/>
						</g>
					</g>
				</g>
				<path id="Layer" class="s2" d="m32.9 45.1c-7.9 0-14.2-6.4-14.2-14.2 0-7.8 6.3-14.2 14.2-14.2 7.8 0 14.1 6.4 14.1 14.2 0 7.8-6.3 14.2-14.1 14.2z"/>
			</g>
			<g id="Layer">
				<g id="Layer">
					<g id="Layer">
						<g id="Layer">
							<path id="Layer" class="s4" d="m24.8 80.2c-8.3-8.3-13-18.8-13.5-28.5q-0.9 0.7-1.7 1.5c-11.7 11.6-11.7 30.6 0 42.3 11.7 11.6 30.6 11.6 42.3 0q0.8-0.8 1.5-1.7c-9.7-0.6-20.2-5.2-28.6-13.6z"/>
						</g>
					</g>
					<g id="Layer">
						<g id="Layer">
							<path id="Layer" class="s5" d="m53.4 93.8c-2.9-0.1-5.8-0.7-8.8-1.6q-0.5 0.2-1.1 0.4-0.6 0.3-1.1 0.5-6 2.8-12.7 2.6-2.9 0.1-5.6-0.3-6.7-1-12.8-4.4-1.3-1-2.6-1.9-0.9-0.7-1.8-1.4-1.6-1.3-3.3-2.5-0.6-0.6-1.1-1.1c1.4 4.1 3.8 8 7.1 11.4 11.7 11.6 30.6 11.6 42.3 0q0.8-0.8 1.5-1.7z"/>
						</g>
					</g>
				</g>
				<path id="Layer" class="s4" d="m32.7 86.6c-7.9 0-14.2-6.4-14.2-14.2 0-7.8 6.3-14.2 14.2-14.2 7.8 0 14.1 6.4 14.1 14.2 0 7.8-6.3 14.2-14.1 14.2z"/>
			</g>
			<g id="Layer">
				<g id="Layer">
					<g id="Layer">
						<path id="Layer" class="s6" d="m81.2 80.2c-8.4 8.4-18.8 13-28.6 13.6q0.7 0.9 1.5 1.7c11.7 11.6 30.6 11.6 42.3 0 11.7-11.7 11.7-30.7 0-42.3q-0.8-0.8-1.7-1.5c-0.5 9.7-5.2 20.2-13.5 28.5z"/>
					</g>
					<g id="Layer">
						<g id="Layer">
							<path id="Layer" class="s7" d="m105 71.2c-1.8 4.7-4.4 9.1-7.9 13-9.3 10.2-24.3 12.6-37 8.4q-3.8 1-7.5 1.2 0.7 0.9 1.5 1.7c11.7 11.6 30.6 11.6 42.3 0 6.6-6.7 9.5-15.6 8.6-24.3z"/>
						</g>
					</g>
				</g>
				<path id="Layer" class="s6" d="m74.4 86.6c-7.8 0-14.2-6.4-14.2-14.2 0-7.8 6.4-14.2 14.2-14.2 7.8 0 14.2 6.4 14.2 14.2 0 7.8-6.4 14.2-14.2 14.2z"/>
			</g>
		</g>
	</g>
	<g id="TEXTS">
		<g id="Layer">
			<g id="Layer">
				<g id="Layer">
					<text id="WORKSPACE" style="transform: matrix(1,0,0,1,117.257,48.54)" >
						<tspan x="0" y="0" class="t8">W</tspan><tspan  y="0" class="t8">O</tspan><tspan  y="0" class="t8">R</tspan><tspan  y="0" class="t8">K</tspan><tspan  y="0" class="t8">S</tspan><tspan  y="0" class="t8">P</tspan><tspan  y="0" class="t8">A</tspan><tspan  y="0" class="t8">C</tspan><tspan  y="0" class="t8">E</tspan><tspan  y="0" class="t8">
</tspan>
					</text>
				</g>
				<g id="Layer">
					<text id="MANAGEMENT SERVICES" style="transform: matrix(1,0,0,1,116.98,78.637)" >
						<tspan x="0" y="0" class="t9">M</tspan><tspan  y="0" class="t9">A</tspan><tspan  y="0" class="t9">N</tspan><tspan  y="0" class="t9">A</tspan><tspan  y="0" class="t9">G</tspan><tspan  y="0" class="t9">E</tspan><tspan  y="0" class="t9">M</tspan><tspan  y="0" class="t9">E</tspan><tspan  y="0" class="t9">N</tspan><tspan  y="0" class="t9">T SE</tspan><tspan  y="0" class="t9">R</tspan><tspan  y="0" class="t9">V</tspan><tspan  y="0" class="t9">I</tspan><tspan  y="0" class="t9">C</tspan><tspan  y="0" class="t9">E</tspan><tspan  y="0" class="t9">S
</tspan>
					</text>
				</g>
			</g>
		</g>
	</g>
</svg>