<svg version="1.2" xmlns="http://www.w3.org/2000/svg" viewBox="0 0 266 105" width="266" height="105">
    <style>
        .a {
            fill: #2192ce
        }

        .b {
            fill: #168bbf
        }

        .c {
            fill: #d91277
        }

        .d {
            fill: #c61074
        }

        .e {
            fill: #232323
        }

        .f {
            fill: #f7c210
        }

        .g {
            fill: #eab00f
        }

        .h {
            fill: #818384
        }
    </style>
    <g style="display:none">
        <path d="m-42-154h500v500h-500z" />
    </g>
    <path class="a"
        d="m81.2 23.9c8.3 8.4 13 18.8 13.5 28.6q0.9-0.7 1.7-1.5c11.7-11.7 11.7-30.6 0-42.3-11.7-11.7-30.6-11.7-42.3 0q-0.8 0.8-1.5 1.6c9.8 0.6 20.2 5.2 28.6 13.6z" />
    <path class="b"
        d="m102 20q1.2 1.3 2.2 2.6c-1.2-5.1-3.9-9.9-7.8-13.9-11.7-11.7-30.6-11.7-42.3 0q-0.8 0.8-1.5 1.6c3.2 0.2 6.5 0.9 9.8 2 13.1-5.4 29.5-2.3 39.6 7.7z" />
    <path class="a"
        d="m74.1 45.1c-7.8 0-14.1-6.3-14.1-14.2 0-7.8 6.3-14.1 14.1-14.1 7.9 0 14.2 6.3 14.2 14.1 0 7.9-6.3 14.2-14.2 14.2z" />
    <path class="c"
        d="m24.8 23.9c8.4-8.4 18.9-13 28.6-13.6q-0.7-0.8-1.5-1.6c-11.7-11.7-30.6-11.7-42.3 0-11.7 11.7-11.7 30.6 0 42.3q0.8 0.8 1.7 1.5c0.5-9.8 5.2-20.2 13.5-28.6z" />
    <path class="d"
        d="m12.2 38.6q-0.6-4.5-1.2-9.1 0-9.5 4.7-17.7 2.9-3.9 5.8-7.7 2-2.1 4.2-3.7c-5.9 1-11.5 3.8-16.1 8.3-11.7 11.7-11.7 30.6 0 42.3q0.8 0.8 1.7 1.5c0.2-3.4 0.9-6.9 2-10.3q-0.6-1.8-1.1-3.6z" />
    <path class="c"
        d="m32.9 45.1c-7.9 0-14.2-6.4-14.2-14.2 0-7.8 6.3-14.2 14.2-14.2 7.8 0 14.1 6.4 14.1 14.2 0 7.8-6.3 14.2-14.1 14.2z" />
    <path class="e"
        d="m24.8 80.2c-8.3-8.3-13-18.8-13.5-28.5q-0.9 0.7-1.7 1.5c-11.7 11.6-11.7 30.6 0 42.3 11.7 11.6 30.6 11.6 42.3 0q0.8-0.8 1.5-1.7c-9.7-0.6-20.2-5.2-28.6-13.6z" />
    <path
        d="m53.4 93.8c-2.9-0.1-5.8-0.7-8.8-1.6q-0.5 0.2-1.1 0.4-0.6 0.3-1.1 0.5-6 2.8-12.7 2.6-2.9 0.1-5.6-0.3-6.7-1-12.8-4.4-1.3-1-2.6-1.9-0.9-0.7-1.8-1.4-1.6-1.3-3.3-2.5-0.6-0.6-1.1-1.1c1.4 4.1 3.8 8 7.1 11.4 11.7 11.6 30.6 11.6 42.3 0q0.8-0.8 1.5-1.7z" />
    <path class="e"
        d="m32.7 86.6c-7.9 0-14.2-6.4-14.2-14.2 0-7.8 6.3-14.2 14.2-14.2 7.8 0 14.1 6.4 14.1 14.2 0 7.8-6.3 14.2-14.1 14.2z" />
    <path class="f"
        d="m81.2 80.2c-8.4 8.4-18.8 13-28.6 13.6q0.7 0.9 1.5 1.7c11.7 11.6 30.6 11.6 42.3 0 11.7-11.7 11.7-30.7 0-42.3q-0.8-0.8-1.7-1.5c-0.5 9.7-5.2 20.2-13.5 28.5z" />
    <path class="g"
        d="m105 71.2c-1.8 4.7-4.4 9.1-7.9 13-9.3 10.2-24.3 12.6-37 8.4q-3.8 1-7.5 1.2 0.7 0.9 1.5 1.7c11.7 11.6 30.6 11.6 42.3 0 6.6-6.7 9.5-15.6 8.6-24.3z" />
    <path class="f"
        d="m74.4 86.6c-7.8 0-14.2-6.4-14.2-14.2 0-7.8 6.4-14.2 14.2-14.2 7.8 0 14.2 6.4 14.2 14.2 0 7.8-6.4 14.2-14.2 14.2z" />
    <path
        d="m126 41.8v3.3q-1.1 0.6-2.4 0.9-1.2 0.3-2.6 0.3-4 0-6.3-2.2-2.3-2.3-2.3-6.1 0-3.8 2.3-6.1 2.3-2.2 6.3-2.2 1.4 0 2.6 0.3 1.3 0.3 2.4 0.9v3.3q-1.2-0.8-2.3-1.2-1.1-0.3-2.3-0.3-2.2 0-3.5 1.4-1.3 1.4-1.3 3.9 0 2.5 1.3 3.9 1.3 1.4 3.5 1.4 1.2 0 2.3-0.4 1.1-0.3 2.3-1.1zm10.7-9.1q-1.8 0-2.9 1.4-1 1.4-1 3.9 0 2.5 1 3.9 1.1 1.4 2.9 1.4 1.9 0 3-1.4 1-1.4 1-3.9 0-2.5-1-3.9-1.1-1.4-3-1.4zm0-3q3.9 0 6.1 2.2 2.2 2.2 2.2 6.1 0 3.9-2.2 6.1-2.2 2.2-6.1 2.2-3.8 0-6-2.2-2.2-2.2-2.2-6.1 0-3.9 2.2-6.1 2.2-2.2 6-2.2zm11.4 16.3v-16h5.3l3.6 8.5 3.7-8.5h5.3v16h-3.9v-11.7l-3.7 8.6h-2.7l-3.7-8.6v11.7zm21.9 0v-16h5.3l3.7 8.5 3.6-8.5h5.3v16h-3.9v-11.7l-3.7 8.6h-2.6l-3.7-8.6v11.7zm21.9-6.4v-9.6h4.1v9.6q0 2 0.6 2.8 0.7 0.9 2.2 0.9 1.4 0 2.1-0.9 0.6-0.8 0.6-2.8v-9.6h4.2v9.6q0 3.4-1.7 5-1.7 1.7-5.2 1.7-3.5 0-5.2-1.7-1.7-1.6-1.7-5zm17.8 6.4v-16h4.6l5.9 11v-11h3.9v16h-4.6l-5.9-11v11zm18.4 0v-16h4.2v16zm6.3-12.9v-3.1h14.7v3.1h-5.3v12.9h-4.1v-12.9zm20.8 6.1l-6.1-9.2h4.5l3.6 5.7 3.7-5.7h4.5l-6.1 9.2v6.8h-4.1z" />
    <path class="h"
        d="m121.1 61.6v1.8q-1-0.5-2-0.7-0.9-0.3-1.8-0.3-1.5 0-2.4 0.6-0.8 0.6-0.8 1.7 0 0.9 0.6 1.4 0.5 0.5 2.1 0.7l1.1 0.3q2.1 0.4 3.1 1.4 1 1 1 2.7 0 2-1.4 3-1.3 1.1-3.9 1.1-1 0-2.1-0.3-1.1-0.2-2.3-0.6v-1.9q1.1 0.6 2.2 0.9 1.1 0.3 2.2 0.3 1.6 0 2.5-0.6 0.8-0.6 0.8-1.8 0-1-0.6-1.6-0.6-0.6-2.1-0.8l-1.1-0.3q-2.1-0.4-3-1.3-1-0.9-1-2.4 0-1.9 1.3-2.9 1.3-1.1 3.6-1.1 1 0 2 0.2 1 0.2 2 0.5zm3.8 13.4v-13.9h8.8v1.6h-6.9v4.1h6.6v1.6h-6.6v5h7v1.6zm18.6-6.5q0.6 0.2 1.2 0.9 0.5 0.6 1.1 1.8l1.9 3.8h-2l-1.8-3.6q-0.6-1.3-1.3-1.8-0.6-0.5-1.7-0.5h-2.1v5.9h-1.9v-13.9h4.3q2.3 0 3.5 1 1.2 1 1.2 3 0 1.3-0.6 2.2-0.6 0.9-1.8 1.2zm-2.3-5.8h-2.4v4.9h2.4q1.3 0 2-0.6 0.7-0.6 0.7-1.9 0-1.2-0.7-1.8-0.7-0.6-2-0.6zm13.6 12.3h-2.1l-5.3-13.9h1.9l4.4 11.7 4.4-11.7h2zm7.3 0v-13.8h1.8v13.8zm16-12.7v1.9q-0.9-0.8-2-1.3-1.1-0.4-2.3-0.4-2.3 0-3.6 1.4-1.3 1.5-1.3 4.2 0 2.8 1.3 4.2 1.3 1.5 3.6 1.5 1.2 0 2.3-0.5 1.1-0.4 2-1.3v2q-1 0.6-2.1 1-1.1 0.3-2.3 0.3-3.1 0-4.9-1.9-1.8-1.9-1.8-5.3 0-3.3 1.8-5.2 1.8-2 4.9-2 1.3 0 2.4 0.4 1.1 0.3 2 1zm2.9 12.7v-13.8h8.8v1.6h-6.9v4.1h6.6v1.6h-6.6v5h7v1.5zm20.4-13.3v1.8q-1.1-0.5-2.1-0.8-0.9-0.2-1.8-0.2-1.5 0-2.4 0.6-0.8 0.6-0.8 1.7 0 0.9 0.6 1.3 0.5 0.5 2.1 0.8l1.1 0.2q2.1 0.4 3.1 1.4 1 1 1 2.7 0 2-1.4 3.1-1.3 1-3.9 1-1 0-2.1-0.2-1.1-0.2-2.3-0.7v-1.9q1.1 0.6 2.2 1 1.1 0.3 2.2 0.3 1.6 0 2.5-0.6 0.8-0.7 0.8-1.8 0-1.1-0.6-1.6-0.6-0.6-2.1-0.9l-1.1-0.2q-2.1-0.4-3-1.3-1-0.9-1-2.5 0-1.8 1.3-2.9 1.3-1.1 3.6-1.1 1 0 2 0.2 1 0.2 2.1 0.6z" />
</svg>