<svg version="1.2" xmlns="http://www.w3.org/2000/svg" viewBox="0 0 808 364" width="808" height="364"><defs><linearGradient id="P" gradientUnits="userSpaceOnUse"/><linearGradient id="g1" x1="33" y1="83.1" x2="118.5" y2="-56.9" href="#P"><stop offset=".14" stop-color="#0193cc"/><stop offset=".88" stop-color="#01d0cc"/></linearGradient><linearGradient id="g2" x1="71.5" y1="114" x2="157" y2="-26.1" href="#P"><stop offset=".14" stop-color="#0193cc"/><stop offset=".88" stop-color="#01d0cc"/></linearGradient><linearGradient id="g3" x1="133.8" y1="46.4" x2="299.5" y2="245.8" href="#P"><stop offset=".1" stop-color="#662d91"/><stop offset=".83" stop-color="#f0f"/></linearGradient><linearGradient id="g4" x1="97.2" y1="124.7" x2="182.7" y2="-15.4" href="#P"><stop offset=".14" stop-color="#0193cc"/><stop offset=".88" stop-color="#01d0cc"/></linearGradient></defs><style>.a{fill:#0b1f33}.b{fill:#f0f}.c{fill:#001a26}.d{fill:url(#g1)}.e{fill:url(#g2)}.f{fill:url(#g3)}.g{fill:#fff}.h{fill:url(#g4)}</style><g style="display:none"><path class="a" d="m-69-250h998v1000h-998z"/></g><path class="b" d="m214.7 302.3c3.4 0 6.4-1.2 8.3-3.5l-2.5-2.4c-1.5 1.7-3.4 2.5-5.6 2.5-4.4 0-7.5-3.1-7.5-7.4 0-4.3 3.1-7.4 7.5-7.4 2.2 0 4.1 0.8 5.6 2.5l2.5-2.4c-1.9-2.3-4.9-3.5-8.3-3.5-6.4 0-11.2 4.5-11.2 10.8 0 6.3 4.8 10.8 11.2 10.8zm34 0c6.5 0 11.3-4.6 11.3-10.8 0-6.2-4.8-10.8-11.3-10.8-6.5 0-11.3 4.6-11.3 10.8 0 6.2 4.8 10.8 11.3 10.8zm0-3.4c-4.2 0-7.4-3.1-7.4-7.4 0-4.3 3.2-7.4 7.4-7.4 4.3 0 7.4 3.1 7.4 7.4 0 4.3-3.1 7.4-7.4 7.4zm42.9-17.9v14.2l-11.6-14.2h-3.2v21h3.8v-14.2l11.6 14.2h3.2v-21zm26.4 21h3.9v-17.7h7v-3.3h-17.9v3.3h7zm30.3-3.3v-5.8h10.1v-3.2h-10.1v-5.4h11.4v-3.3h-15.3v21h15.8v-3.3zm43.5-17.7v14.2l-11.5-14.2h-3.2v21h3.8v-14.2l11.6 14.2h3.2v-21zm26.4 21h3.9v-17.7h6.9v-3.3h-17.8v3.3h7zm70.2 0v-21h-3.2l-8.2 13.9-8.3-13.9h-3.2v21h3.7v-13.7l6.9 11.3h1.7l6.9-11.5 0.1 13.9zm33.9 0h4.1l-9.5-21h-3.8l-9.4 21h4l2-4.9h10.5zm-11.2-7.9l3.9-9.2 4 9.2zm45.4-13.1v14.3l-11.6-14.3h-3.2v21h3.9v-14.2l11.5 14.2h3.2v-21zm37.9 21h4.1l-9.5-21h-3.9l-9.4 21h4l2.1-4.8h10.5zm-11.3-7.9l3.9-9.2 4 9.2zm44.7 3.7c-1.4 0.8-2.9 1.1-4.4 1.1-4.4 0-7.6-3.2-7.6-7.4 0-4.4 3.2-7.4 7.7-7.4 2.2 0 4.1 0.7 5.8 2.4l2.4-2.4c-2-2.3-4.9-3.4-8.4-3.4-6.6 0-11.4 4.5-11.4 10.8 0 6.2 4.8 10.8 11.3 10.8 3 0 6.1-0.9 8.2-2.7v-8.4h-3.6zm25.3 1v-5.8h10.1v-3.2h-10.1v-5.5h11.4v-3.3h-15.3v21h15.7v-3.2zm51.8 3.2v-21h-3.2l-8.2 14-8.4-14h-3.2v21h3.7v-13.7l6.9 11.3h1.8l6.9-11.5v13.9zm22.2-3.2v-5.8h10.1v-3.2h-10.1v-5.5h11.4v-3.3h-15.3v21h15.7v-3.2zm43.6-17.8v14.3l-11.6-14.3h-3.2v21h3.9v-14.2l11.6 14.2h3.2v-21zm26.4 21h3.9v-17.7h6.9v-3.3h-17.8v3.3h7zm-585.6 36.3c5.8 0 8.5-2.8 8.5-6.2 0-7.7-12.5-4.8-12.5-9.3 0-1.6 1.4-2.8 4.6-2.8 1.8 0 3.9 0.5 5.8 1.6l1.2-3c-1.8-1.2-4.5-1.9-7-1.9-5.7 0-8.4 2.9-8.4 6.3 0 7.8 12.4 4.8 12.4 9.4 0 1.5-1.3 2.7-4.6 2.7-2.6 0-5.3-1-6.9-2.3l-1.4 3c1.8 1.5 5 2.5 8.3 2.5zm41.8-21.3h-3.9l-6.2 10.3-6.1-10.3h-4.2l8.3 13.7v7.3h3.9v-7.4zm21.2 21.3c5.7 0 8.5-2.9 8.5-6.2 0-7.7-12.5-4.8-12.5-9.3 0-1.6 1.3-2.8 4.6-2.8 1.8 0 3.9 0.5 5.8 1.6l1.2-3c-1.8-1.2-4.5-1.9-7-1.9-5.8 0-8.5 2.9-8.5 6.3 0 7.8 12.5 4.8 12.5 9.4 0 1.5-1.4 2.7-4.6 2.7-2.6 0-5.3-1-7-2.3l-1.3 3c1.7 1.5 5 2.5 8.3 2.5zm28.9-0.3h3.9v-17.7h7v-3.3h-17.9v3.3h7zm30.3-3.2v-5.8h10.1v-3.2h-10.1v-5.5h11.4v-3.3h-15.3v21h15.7v-3.2zm51.8 3.2v-21h-3.2l-8.2 13.9-8.3-13.9h-3.3v21h3.8v-13.7l6.9 11.3h1.7l6.9-11.5v13.9z"/><path class="c" d="m341.9 242c23 0 42.6-8.2 55.6-23.4l-16.8-16c-10.2 11.2-22.8 16.6-37.4 16.6-29 0-50-20.4-50-49.2 0-28.8 21-49.2 50-49.2 14.6 0 27.2 5.4 37.4 16.4l16.8-15.8c-13-15.2-32.6-23.4-55.4-23.4-43 0-75 30.2-75 72 0 41.8 32 72 74.8 72zm249.8-2l-0.2-140h-21.4l-54.6 92.8-55.6-92.8h-21.4v140h24.8v-91.6l46 75.6h11.6l46-76.8 0.2 92.8zm97.2 2c38.4 0 56.6-19.2 56.6-41.6 0-51.4-83-32-83-61.8 0-10.6 8.8-19 30.4-19 12.2 0 26 3.6 38.6 11l8.2-20.2c-12.2-8-29.8-12.4-46.6-12.4-38.4 0-56.4 19.2-56.4 41.8 0 52 83.2 32.2 83.2 62.4 0 10.4-9.2 18.2-31 18.2-17.2 0-35-6.4-46.2-15.4l-9 20.2c11.6 10 33.4 16.8 55.2 16.8z"/><path class="d" d="m140.8 105.2l-45.8 27.4c-6.6 3.8-14.9-0.9-14.9-8.5v-39.9c0-3.5 1.9-6.7 4.9-8.5l45.8-27.4c6.5-3.8 14.8 0.9 14.8 8.5v39.9c0 3.5-1.8 6.7-4.8 8.5z"/><path class="e" d="m217.2 51.7l-40.7 24.4c-5.9 3.4-13.2-0.8-13.2-7.6v-35.4c0-3.1 1.6-6 4.3-7.6l40.7-24.3c5.8-3.4 13.2 0.8 13.2 7.5v35.5c0 3.1-1.7 6-4.3 7.5z"/><path class="f" d="m162.5 249.1l-152.2-89.9-2.1-1.4q-0.6-0.5-1.1-1.2c-1.3-2-1-4.7 0.4-6.6l0.3-0.4c0 0-7.1 4.8-7.2 12.9v103c0 6.8 3.6 13.1 9.5 16.6l132.8 78.5c12.9 7.6 29.1-1.7 29.1-16.6v-78.3c0-6.8-3.6-13.1-9.5-16.6z"/><path class="g" d="m169 102.9l20.1-12v-10q0-1.3-0.2-2.5l-11.9 7.1c-6.1 3.6-13.7-0.8-13.7-7.8v-14.9c-1.1 0.4-2.2 0.9-3.3 1.5l-6.4 3.8v37.7c0 3.9-2.1 7.5-5.4 9.5l-51.4 30.7c-7.4 4.4-16.7-0.9-16.7-9.5v-25l-58.3 34.1-0.3 0.4c-1.4 1.9-1.7 4.6-0.4 6.6q0.5 0.7 1.1 1.2l2.1 1.4 95 56.2 60.3-35.7c4-2.3 6.9-5.9 8.4-10.1l-7.3 4.3c-7.7 4.5-17.4-1-17.4-10v-47c0-4.1 2.1-7.9 5.7-10z"/><path class="h" d="m231.9 128.7l-51.8 31c-7.4 4.3-16.8-1-16.8-9.6v-45.2c0-3.9 2.1-7.6 5.5-9.6l51.8-30.9c7.4-4.4 16.8 0.9 16.8 9.6v45.1c0 4-2.1 7.6-5.5 9.6z"/></svg>