<svg version="1.2" xmlns="http://www.w3.org/2000/svg" viewBox="0 0 996 388" width="996" height="388">
	<title>4880762-ai</title>
	<style>
		.s0 { fill: #84a5ce } 
		.s1 { fill: #4c1c1f } 
		.s2 { fill: #e1c394 } 
		.s3 { fill: #c05457 } 
		.s4 { fill: #4e7075 } 
		.s5 { fill: none;stroke: #ffffff;stroke-linecap: round;stroke-miterlimit:10 } 
		.s6 { fill: none;stroke: #729a9e;stroke-linecap: round;stroke-miterlimit:10;stroke-width: 2 } 
		.s7 { fill: #e7b86d } 
		.s8 { fill: #a2c0bd } 
		.s9 { fill: none;stroke: #ffffff;stroke-miterlimit:10 } 
		.s10 { fill: #729a9e } 
		.s11 { fill: #4e7073 } 
		.s12 { fill: #2a3c4d } 
		.s13 { opacity: .6;fill: none;stroke: #ffffff;stroke-linecap: round;stroke-miterlimit:10 } 
		.s14 { fill: #bed4ce } 
		.s15 { fill: #4e201f } 
		.s16 { fill: none;stroke: #000000;stroke-linecap: round;stroke-miterlimit:10 } 
		.s17 { fill: #dc957b } 
		.s18 { fill: #ffffff } 
		.s19 { fill: none;stroke: #4e201f;stroke-linecap: round;stroke-miterlimit:10 } 
		.s20 { fill: none;stroke: #cf6544;stroke-linecap: round;stroke-miterlimit:10;stroke-width: .8 } 
		.s21 { fill: #521f22 } 
		.s22 { fill: #cf6544 } 
		.s23 { fill: #cd954e } 
		.s24 { fill: #536f8c } 
		.s25 { fill: none;stroke: #84a5ce;stroke-linecap: round;stroke-miterlimit:10;stroke-width: 2 } 
		.s26 { fill: none;stroke: #c05457;stroke-linecap: round;stroke-miterlimit:10;stroke-width: 2 } 
		.s27 { fill: #ba8449 } 
		.s28 { fill: #471d1b } 
		.s29 { fill: none;stroke: #222221;stroke-miterlimit:10 } 
		.s30 { fill: none;stroke: #4e201f;stroke-linecap: round;stroke-miterlimit:10;stroke-width: 2 } 
		.s31 { fill: none;stroke: #4e7075;stroke-linecap: round;stroke-miterlimit:10;stroke-width: 2 } 
		.s32 { fill: none;stroke: #e7b86d;stroke-linecap: round;stroke-miterlimit:10;stroke-width: 2 } 
		.s33 { fill: none;stroke: #536f8c;stroke-linecap: round;stroke-miterlimit:10;stroke-width: 2 } 
	</style>
	<g id="OBJECTS">
		<g id="&lt;Group&gt;">
			<path id="&lt;Path&gt;" class="s0" d="m299 121.7c0 57.9-46.9 104.9-104.8 104.9-57.9 0-104.8-47-104.8-104.9 0-57.9 46.9-104.8 104.8-104.8 57.9 0 104.8 46.9 104.8 104.8z"/>
			<g id="&lt;Group&gt;">
				<path id="&lt;Path&gt;" class="s1" d="m120.3 122.4h-66.3v-90.1h66.3z"/>
				<path id="&lt;Path&gt;" class="s2" d="m116.5 118.5h-58.7v-82.4h58.7z"/>
				<path id="&lt;Path&gt;" class="s3" d="m72.2 94.9c-3-5-7.8-2.8-9.2 4.2-1.4 7 5.2 12.2 11.8 10 6.6-2.2 6.8-8.4 6.2-11-0.6-2.6-4.8-4.3-7.2-2.1-2.4 2.1-1.6-1.1-1.6-1.1z"/>
				<path id="&lt;Path&gt;" class="s4" d="m73.4 93.7c0 0 5-13.8 12.4-16.8l-4.6-8.1 4.6-3.5 2.2 11.2c0 0 9.2 6.2 9.8 17.2l-1.6 1.2c0 0-0.2-10-9-16.8 0 0-7.2 1.4-11.8 15.6z"/>
				<path id="&lt;Path&gt;" class="s3" d="m98.4 94.9c3-5 7.8-2.8 9.2 4.2 1.4 7-5.2 12.2-11.8 10-6.6-2.2-6.8-8.4-6.2-11 0.6-2.6 4.8-4.3 7.2-2.1 2.4 2.1 1.6-1.1 1.6-1.1z"/>
				<path id="&lt;Path&gt;" class="s4" d="m91.2 74.3c0 0-1.2-5.8 4.2-9.8 5.4-4 14.3-2.1 14.3-2.1 0 0-2.3 6.7-7.7 10.5-5.4 3.8-10.8 1.4-10.8 1.4z"/>
				<path id="&lt;Path&gt;" class="s4" d="m88 65.3c0 0-3.2-3.2-2.4-9.7 0.8-6.6 8.8-11.8 8.8-11.8 0 0 2.6 9.2 0.8 14.9-1.8 5.8-7.2 6.6-7.2 6.6z"/>
			</g>
			<g id="&lt;Group&gt;">
				<g id="&lt;Group&gt;">
					<path id="&lt;Path&gt;" class="s3" d="m125.5 122.5c-13 4.7-32.5 15.2-48.2 50.5-15.8 35.3-20.1 109.1-20.3 139.8-0.3 30.8 36.1 58.4 109.8 58.4 73.8 0 104-34 109.7-52 5.7-18.1 9.2-137.3-46.9-183.7-37.9-31.4-83.2-20.6-104.1-13z"/>
					<path id="&lt;Path&gt;" class="s5" d="m171.5 259.4c0 0 32.6-5.3 43.1-22.2"/>
				</g>
				<g id="&lt;Group&gt;">
					<g id="&lt;Group&gt;">
						<path id="&lt;Path&gt;" class="s6" d="m263.3 124.4v22.3"/>
						<path id="&lt;Path&gt;" class="s7" d="m268.3 151.4c0 2.6-2.1 4.7-4.7 4.7-2.6 0-4.7-2.1-4.7-4.7 0-2.6 2.1-4.7 4.7-4.7 2.6 0 4.7 2.1 4.7 4.7z"/>
					</g>
					<path id="&lt;Path&gt;" class="s4" d="m242.3 361.5h-3.6v-241.4h3.6z"/>
					<path id="&lt;Path&gt;" class="s8" d="m287.4 124.4h-97.4l22.5-44.6h52.1z"/>
					<path id="&lt;Path&gt;" class="s9" d="m230 79.8l-11.4 44.6"/>
					<path id="&lt;Path&gt;" class="s9" d="m246.7 79.8l12.2 44.6"/>
					<path id="&lt;Path&gt;" class="s10" d="m190 124.4c0 0 0.6 6.8 5.4 6.8 4.8 0 5.7-6.8 5.7-6.8 0 0 0.9 6.8 5.3 6.8 4.4 0 6.1-6.8 6.1-6.8 0 0 1.3 6.9 6.1 6.9 4.9-0.1 5.7-6.9 5.7-6.9 0 0 1.8 6.8 5.7 6.8 4 0 6.6-6.8 6.6-6.8 0 0 3.9 6.8 7.4 6.8 3.5 0 5.2-7 5.2-7 0 0 1.8 6.7 7.1 7.1 5.2 0.4 7-6.9 7-6.9 0 0 2.6 6.5 6.1 6.9 3.5 0.4 6.6-6.9 6.6-6.9 0 0 0.4 6.8 5.7 6.8 5.2 0 5.7-6.8 5.7-6.8z"/>
					<path id="&lt;Path&gt;" class="s4" d="m197.1 371.3h84.4c0 0-19.9-11.1-41-11.1-21.2 0-43.4 11.1-43.4 11.1z"/>
				</g>
				<g id="&lt;Group&gt;">
					<g id="&lt;Group&gt;">
						<path id="&lt;Path&gt;" class="s10" d="m89.6 333v14.5c0 0 15.6 6.6 25.7 0l3.8-16.2z"/>
						<path id="&lt;Path&gt;" class="s11" d="m89.6 333l5.8-93.9c0 0 3.1-8.9 14.1-8.9 11 0 48.5-2 48.5-2 0 0 17.5 7 13.5 31.2 0 0-32.5 8.3-42 9.5 0 0-2.1 25.7-10.4 62.4 0 0-9.6 5.5-29.5 1.7z"/>
						<path id="&lt;Path&gt;" class="s12" d="m88.7 347c0 0-8.8 4.4-16.5 8.2-7.7 3.8-13.6 2.7-13.1 10.9 0 0 15 2.2 31.8-0.2 16.8-2.4 23.7-3.2 25.8-4.2 2.2-1.1 1.2-4 0.8-6.3-0.4-2.3-1.2-9.2-1.2-9.2z"/>
						<path id="&lt;Path&gt;" class="s13" d="m170.6 242.8c0 0-42.8 4.8-48.5 5.5-5.7 0.7-13.6 86-13.6 86"/>
					</g>
					<g id="&lt;Group&gt;">
						<path id="&lt;Path&gt;" class="s14" d="m42.2 288.5l-6.9 13.6c0 0 1.1 7.8 6.9 11.6 5.8 3.7 14.8 5.5 14.8 5.5l8.9-12.5z"/>
						<path id="&lt;Path&gt;" class="s10" d="m42.2 288.5c0 0 25.1-53.1 27.5-58.6 2.3-5.5 5.8-18.7 19.9-20.3 14.1-1.6 46.5-4.3 46.5-4.3 0 0 14.1 11.3 11.8 32.7 0 0-21 3.5-38.4 0.6l-43.6 68.1c0 0-17.9-10.4-23.7-18.2z"/>
						<path id="&lt;Path&gt;" class="s12" d="m35.3 302.1c0 0-9.5-2.3-17.9-4.3-8.4-2-12.2-6.7-17.1 0 0 0 10.1 11.2 24.6 20.2 14.4 9 20.2 12.7 22.5 13.3 2.3 0.6 3.5-2.3 4.6-4.3 1.2-2.1 5-7.8 5-7.8z"/>
						<path id="&lt;Path&gt;" class="s13" d="m146.4 221.5c0 0-37.3 1.8-43.9 4-6.6 2.2-43.4 76-43.4 76"/>
					</g>
					<path id="&lt;Path&gt;" class="s15" d="m134.8 108.9l-2.5 27.9 51.3-0.4v-23.9c0 0-29.4-14.6-48.8-3.6z"/>
					<path id="&lt;Path&gt;" class="s7" d="m153 135.5c0 0-14-0.2-20.7 1.3-6.7 1.5-8.9 5.9-12.8 12.5-3.9 6.6-17.5 45.6-17.5 45.6 0 0-4.9 13.2 5.6 14.5 10.4 1.3 29.6 0 29.6 0 0 0 6 13.8 6.3 21.7 0.3 7.9 12.3 9.9 16.6 12.3 4.3 2.4 10.7 13.8 11.4 16 0 0 15.5-3.8 21-14.5 5.5-10.7 0-36.4 0-36.4l-7.7-43.9-1.2-28.2z"/>
					<path id="&lt;Path&gt;" class="s16" d="m133.1 159l-2.2 14.3"/>
					<path id="&lt;Path&gt;" class="s17" d="m155 119.1l-2 16.4c0 0-15.5 0.4-20.7 1.3 0 0 0.1 8.6 6.8 9.6 6.7 0.9 31.5 0.5 35.4 0 3.8-0.6 8.1-5.2 9.1-10 0 0-10.1-0.5-14-0.9l2-18.8c0 0-6.5-2.8-16.6 2.4z"/>
					<path id="&lt;Path&gt;" class="s17" d="m157.5 181.9c0 0-7.3-0.2-13.9 4-6.6 4.1-10.9 12.2-10.4 14.5 0.5 2.3 1.9 3.5 2.9 3.3 1-0.2 1.7 2.3 2.3 2.5 0.7 0.1 3.8 2.6 6.9 1 3.1-1.7 4-3.8 6-5 2-1.1 6.9-0.3 8.3-2.6z"/>
					<path id="&lt;Path&gt;" class="s18" d="m137.2 87.5c0 0-5.9-2-8.7 1.1-2.8 3.1-4.1 13.8-1.8 17 2.3 3.3 5.4 4.3 10.5 2.7z"/>
					<path id="&lt;Path&gt;" class="s18" d="m147.2 70.5c0 0 8.1-3.8 19-2.5 10.8 1.2 19.8 8.2 20.4 21.1 0 0 0.8 2.9-6.5 3.1 0 0-6.8-14.7-21-17.9-14.1-3.2-11.9-3.8-11.9-3.8z"/>
					<path id="&lt;Path&gt;" class="s17" d="m183.4 97.5c0 12.8-9.1 21.8-24.3 21.8-16.5 0-24.2-9-24.2-21.8 0-12.8 10.8-23.2 24.2-23.2 13.4 0 24.3 10.4 24.3 23.2z"/>
					<path id="&lt;Path&gt;" class="s15" d="m156.8 72.5c0 0-8.7 17.2-21.9 18.2 0 0-4.1 0-2-7.3 1.5-5.4 10.3-17.7 23.9-10.9z"/>
					<path id="&lt;Path&gt;" class="s15" d="m156.8 72.5c0 0-0.5 11.1 8.6 18.2 9.1 7.1 16.9 0 16.9 0 0 0 0.3-24.3-25.5-18.2z"/>
					<path id="&lt;Path&gt;" class="s19" d="m156.8 72.5c0 0-4 9.1 0 13.7"/>
					<path id="&lt;Path&gt;" class="s20" d="m151.5 92.2c0 0-1 6.1-1 8.4 0 2.3 1.8 2.3 2.5 2"/>
					<path id="&lt;Path&gt;" class="s21" d="m162.1 95.9c0 1.1-0.9 2.1-2 2.1-1.1 0-2-1-2-2.1 0-1.1 0.9-2 2-2 1.1 0 2 0.9 2 2z"/>
					<path id="&lt;Path&gt;" class="s19" d="m159.1 90.7c0 0 2.3-1.1 5.1 0"/>
					<path id="&lt;Path&gt;" class="s22" d="m179.6 97.5c-1.8-3.1-10.3-1.7-12.8 5.2-2.4 7 1.8 13.1 6.4 13.2 4.6 0.1 10.2-11.9 6.4-18.4z"/>
					<path id="&lt;Path&gt;" class="s22" d="m134.9 95.9c0 0 4.2 0.1 7 4.7 2.8 4.5 1.1 14.3 1.1 14.3 0 0-9.7-6.5-8.1-19z"/>
					<path id="&lt;Path&gt;" class="s20" d="m147.1 105.4c0 0 3.9 7.3 9.7 0.5"/>
					<path id="&lt;Path&gt;" class="s18" d="m181.6 88.7c-4.3 0.6-5.6 6.6-5.6 11.9 0 5.3 1 11.4 5.6 11.9 4.5 0.5 9.9-5.6 9.6-14.7-0.3-9.1-5.8-9.5-9.6-9.1z"/>
					<path id="&lt;Path&gt;" class="s21" d="m147.6 95.9c0 1.1-0.9 2.1-2.1 2.1-1.1 0-2-1-2-2.1 0-1.1 0.9-2 2-2 1.2 0 2.1 0.9 2.1 2z"/>
					<path id="&lt;Path&gt;" class="s19" d="m148.1 90.5c0 0-2.3-1.1-5.1 0"/>
					<path id="&lt;Path&gt;" class="s20" d="m155 119.1c0 0 6 1.2 13.9-1.3"/>
					<g id="&lt;Group&gt;">
						<path id="&lt;Path&gt;" class="s7" d="m183.6 136.4c0 0 5.8-0.5 10 3 4.2 3.5 23 41.7 25.4 47.2 2.4 5.5 2.4 23.7-13.8 23-16.2-0.7-45.1-6.3-45.1-6.3l-3.3-26.8 30.4 1.6c0 0-9.9-22.2-3.6-41.7z"/>
						<path id="&lt;Path&gt;" class="s23" d="m166.8 177l4.2 28.3-10.9-2-3.3-26.8z"/>
						<path id="&lt;Path&gt;" class="s23" d="m215.7 179.8c0 0-6.1 1.6-9.7 11.1-3.7 9.5 1 18.7 1 18.7 0 0 7.6 0.6 11.3-7.3 3.7-7.8 1.1-14.6 0.7-15.7-0.5-1-3.3-6.8-3.3-6.8z"/>
						<g id="&lt;Group&gt;">
							<path id="&lt;Path&gt;" class="s16" d="m156.8 176.5l38.1 2"/>
							<path id="&lt;Path&gt;" class="s16" d="m187.2 178.1l-3.4-19.1"/>
						</g>
					</g>
					<g id="&lt;Group&gt;">
						<g id="&lt;Group&gt;">
							<path id="&lt;Path&gt;" class="s12" d="m171 205.3l-19.2 5.9-1.3-3.5 13.4-3.7z"/>
							<path id="&lt;Path&gt;" class="s12" d="m163.9 204l-13.4 3.7h-42l21.1-3.7z"/>
						</g>
						<path id="&lt;Path&gt;" class="s24" d="m151.8 211.2h-69.3l-10.4-50.1h69.2z"/>
					</g>
					<path id="&lt;Path&gt;" class="s18" d="m117.4 187.2c0 4.1-3.3 7.5-7.4 7.5-4.2 0-7.5-3.4-7.5-7.5 0-4.1 3.3-7.4 7.5-7.4 4.1 0 7.4 3.3 7.4 7.4z"/>
				</g>
			</g>
			<path id="&lt;Path&gt;" class="s25" d="m127.3 32.3c0 0 25-19.5 58.2-21.6"/>
			<path id="&lt;Path&gt;" class="s25" d="m292 65.3c0 0 27.5 43.6 5 103.2"/>
			<path id="&lt;Path&gt;" class="s26" d="m65.9 178.8c0 0-13.2 28.2-11.9 72"/>
			<path id="&lt;Path&gt;" class="s26" d="m274.3 197.5c0 0 13.7 30.7 13.1 98.5"/>
		</g>
		<g id="&lt;Group&gt;">
			<path id="&lt;Path&gt;" class="s0" d="m568.7 102.4c0 44.4-36 80.4-80.4 80.4-44.4 0-80.4-36-80.4-80.4 0-44.5 36-80.5 80.4-80.5 44.4 0 80.4 36 80.4 80.5z"/>
			<g id="&lt;Group&gt;">
				<g id="&lt;Group&gt;">
					<path id="&lt;Path&gt;" class="s15" d="m373.3 87.6v-72.5h93.9v72.5z"/>
					<path id="&lt;Path&gt;" class="s7" d="m377.3 83.5v-64.2h85.9v64.2z"/>
					<path id="&lt;Path&gt;" class="s3" d="m435.9 48.6c-2.7-3.2-8.8-4.1-12.9 1.2-4.1 5.4 3.4 24.3 7.8 25.5 4.3 1.2 11.4 1.5 16.5 0 5.1-1.4 13.6-21.8 9.7-27.4-3.9-5.6-10.5-2.9-13.6 1.4 0 0-4.4 3.2-7.5-0.7z"/>
					<path id="&lt;Path&gt;" class="s4" d="m438.5 45.2c0 0-2-5.8-4.9-8.1-2.8-2.4 6.6-5.5 7.6-4.3 1 1.2 0.7 8 0 12.4z"/>
					<path id="&lt;Path&gt;" class="s4" d="m444.6 40c0 0-0.2-8.9 9.5-12.1 0 0 0.9 11.5-9.5 12.1z"/>
					<path id="&lt;Path&gt;" class="s4" d="m432.7 41.2c0 0-4.5-11.7-19-4.2 0 0 9.9 10.6 19 4.2z"/>
					<path id="&lt;Path&gt;" class="s23" d="m385.2 24.1c0 0 2.9 30.4 31.2 33.8 0 0 3.8 12.8 6.8 16 0 0-23.4 5.9-39.2-9.9 0 0-4.9-18.1 1.2-39.9z"/>
				</g>
				<g id="&lt;Group&gt;">
					<g id="&lt;Group&gt;">
						<path id="&lt;Path&gt;" class="s8" d="m616.2 154.3l18.3 125.5h6.5l-18.4-125.5z"/>
						<path id="&lt;Path&gt;" class="s8" d="m585.7 200l18.4 125.5h6.4l-18.4-125.5z"/>
						<path id="&lt;Path&gt;" class="s8" d="m436.4 154.3l-18.4 125.5h-6.4l18.4-125.5z"/>
						<path id="&lt;Path&gt;" class="s8" d="m406.8 200l-18.4 125.5h-6.4l18.4-125.5z"/>
						<path id="&lt;Path&gt;" class="s8" d="m592.1 194.4h-193v-42.3h223.9z"/>
						<path id="&lt;Path&gt;" class="s10" d="m399.1 200h193v-5.6h-193z"/>
						<path id="&lt;Path&gt;" class="s10" d="m592.1 200v-5.6l30.9-42.3v5.9z"/>
					</g>
					<path id="&lt;Path&gt;" class="s18" d="m517.9 171.6c0 0 6.4-0.2 7.5 5.7 1.2 5.9-20.3 15.9-24.3 11.9-4-4.1 2.3-16.7 16.8-17.6z"/>
					<g id="&lt;Group&gt;">
						<path id="&lt;Path&gt;" class="s12" d="m590.9 161.7h-113v-76.2h113z"/>
						<path id="&lt;Path&gt;" class="s24" d="m587 158h-105.2v-68.8h105.2z"/>
						<path id="&lt;Path&gt;" class="s18" d="m587 154.3h-18.3v-62.8h18.3z"/>
						<g id="&lt;Group&gt;">
							<path id="&lt;Path&gt;" class="s7" d="m582.8 99.9h-9.6c-0.7 0-1.4-0.6-1.4-1.4 0-0.7 0.7-1.3 1.4-1.3h9.6c0.7 0 1.3 0.6 1.3 1.3 0 0.8-0.6 1.4-1.3 1.4z"/>
							<path id="&lt;Path&gt;" class="s7" d="m582.8 108h-9.6c-0.7 0-1.4-0.6-1.4-1.4 0-0.7 0.7-1.4 1.4-1.4h9.6c0.7 0 1.3 0.7 1.3 1.4 0 0.8-0.6 1.4-1.3 1.4z"/>
							<path id="&lt;Path&gt;" class="s7" d="m582.8 116.1h-9.6c-0.7 0-1.4-0.6-1.4-1.4 0-0.8 0.7-1.4 1.4-1.4h9.6c0.7 0 1.3 0.6 1.3 1.4 0 0.8-0.6 1.4-1.3 1.4z"/>
							<path id="&lt;Path&gt;" class="s7" d="m582.8 124.1h-9.6c-0.7 0-1.4-0.6-1.4-1.3 0-0.8 0.7-1.4 1.4-1.4h9.6c0.7 0 1.3 0.6 1.3 1.4 0 0.7-0.6 1.3-1.3 1.3z"/>
							<path id="&lt;Path&gt;" class="s7" d="m582.8 140.3h-9.6c-0.7 0-1.4-0.6-1.4-1.4 0-0.7 0.7-1.3 1.4-1.3h9.6c0.7 0 1.3 0.6 1.3 1.3 0 0.8-0.6 1.4-1.3 1.4z"/>
							<path id="&lt;Path&gt;" class="s7" d="m582.8 148.4h-9.6c-0.7 0-1.4-0.6-1.4-1.4 0-0.8 0.7-1.4 1.4-1.4h9.6c0.7 0 1.3 0.6 1.3 1.4 0 0.8-0.6 1.4-1.3 1.4z"/>
							<path id="&lt;Path&gt;" class="s7" d="m582.8 132.2h-9.6c-0.7 0-1.4-0.6-1.4-1.4 0-0.7 0.7-1.3 1.4-1.3h9.6c0.7 0 1.3 0.6 1.3 1.3 0 0.8-0.6 1.4-1.3 1.4z"/>
						</g>
						<path id="&lt;Path&gt;" class="s10" d="m512.7 114.5h-21.1v-17.6h21.1z"/>
						<path id="&lt;Path&gt;" class="s8" d="m538.7 114.5h-21.1v-17.6h21.1z"/>
						<path id="&lt;Path&gt;" class="s10" d="m564.7 114.5h-21.1v-17.6h21.1z"/>
						<path id="&lt;Path&gt;" class="s18" d="m564.7 149.7h-73.7v-30.6h73.7z"/>
						<path id="&lt;Path&gt;" class="s4" d="m558.1 129.5h-60.2c-0.8 0-1.5-0.7-1.5-1.6 0-0.8 0.7-1.5 1.5-1.5h60.2c0.8 0 1.5 0.7 1.5 1.5 0 0.9-0.7 1.6-1.5 1.6z"/>
						<path id="&lt;Path&gt;" class="s4" d="m558.1 135.3h-60.2c-0.8 0-1.5-0.7-1.5-1.6 0-0.8 0.7-1.5 1.5-1.5h60.2c0.8 0 1.5 0.7 1.5 1.5 0 0.9-0.7 1.6-1.5 1.6z"/>
						<path id="&lt;Path&gt;" class="s4" d="m558.1 141h-60.2c-0.8 0-1.5-0.6-1.5-1.5 0-0.8 0.7-1.5 1.5-1.5h60.2c0.8 0 1.5 0.7 1.5 1.5 0 0.9-0.7 1.5-1.5 1.5z"/>
						<g id="&lt;Group&gt;">
							<path id="&lt;Path&gt;" class="s12" d="m522.9 161.7l4.9 8.2h12.9l-4.6-8.2z"/>
							<path id="&lt;Path&gt;" class="s12" d="m518.1 174.4h34.3c0 0-6.4-4.5-11.7-4.5-5.2 0-12.9 0-12.9 0 0 0-4.6 0.6-9.7 4.5z"/>
						</g>
					</g>
					<g id="&lt;Group&gt;">
						<g id="&lt;Group&gt;">
							<g id="&lt;Group&gt;">
								<path id="&lt;Path&gt;" class="s17" d="m428.1 328l-0.4 11.3 24-0.8 1.2-10.5z"/>
								<path id="&lt;Path&gt;" class="s23" d="m424.4 251.7c0 0 5.8 1.9 5.6 10.1-0.2 8.2-9.8 69.4-9.8 69.4 0 0 36.7 2.5 46.1-3.2 0 0 5.4-59.9 5.4-69.2 0-9.4-20.1-16-47.3-7.1z"/>
								<path id="&lt;Path&gt;" class="s27" d="m422.4 316.9l45-1-1.1 12.1c0 0-4.2 5.3-46.1 3.2z"/>
								<path id="&lt;Path&gt;" class="s11" d="m423.8 337.6c0 0 30-0.6 31.5 0.3 1.5 0.9-0.1 8.7-0.1 8.7 0 0 22.9 5.5 25.9 8.5 3.1 3 3 5.1 1.6 6.4-1.4 1.2-54.9 0.9-57.3-0.4-2.4-1.2-2.9-2.9-3-8.2-0.1-5.3 1.4-15.3 1.4-15.3z"/>
							</g>
							<path id="&lt;Path&gt;" class="s11" d="m387 143c-7.1 2.9-15.2 8.8-16.1 25.5-1 16.6 0 58.7 0 58.7 0 0 48-1.7 63.3-6.5 0 0-0.9-31.7-1.5-38.3-0.8-7-1.4-26-9-35.9-5.5-7.2-29.4-6.4-36.7-3.5z"/>
							<g id="&lt;Group&gt;">
								<path id="&lt;Path&gt;" class="s17" d="m497.5 323.2l4.2 10.5 21.6-10.5-3.2-10.1z"/>
								<path id="&lt;Path&gt;" class="s7" d="m433.9 209.2c0 0 28.6 1.4 37.8 1.9 9.2 0.6 17 2.3 24.5 18.2 7.4 15.9 38.6 81.5 38.6 81.5l-44 17.2c0 0-20.3-63.9-22.6-69.6-2.3-5.8-9.3-8.4-18.9-8.1-9.6 0.4-36.7 2.1-36.7 2.1 0 0 8.7-35.3 21.3-43.2z"/>
								<path id="&lt;Path&gt;" class="s23" d="m487.2 316.8l42.4-16.8 5.2 10.8-44 17.2z"/>
								<path id="&lt;Path&gt;" class="s11" d="m497.5 333.7c0 0 27.1-12.8 28.9-12.6 1.7 0.2 3.4 8 3.4 8 0 0 23.2-4.4 27.2-2.8 4 1.5 4.8 3.4 4 5.1-0.8 1.7-49.7 23.4-52.4 23.2-2.7-0.2-3.8-1.6-6.1-6.3-2.3-4.8-5-14.6-5-14.6z"/>
								<path id="&lt;Path&gt;" class="s5" d="m419.8 230.6c0 0 44.7-0.7 51.9 2.4 7.1 3.1 32.4 77.1 32.4 77.1"/>
							</g>
							<g id="&lt;Group&gt;">
								<path id="&lt;Path&gt;" class="s17" d="m488.9 180.8c0 0 1.9 1.1 5.3-2 3.5-3 16.7-8.6 21.8-7.6 5.2 0.9 3.1 2.3 2.1 3.2-0.9 1-6.6 4.6-9.7 8.8-3.1 4.2-4.2 5.6-8.8 6.2-4.6 0.7-6.2 0-6.2 0 0 0-5.3-3.6-4.5-8.6z"/>
								<path id="&lt;Path&gt;" class="s11" d="m410.8 141.4c0 0 12.7 1.6 19.6 5.7 6.9 4 25.4 33.4 25.4 33.4l31.4-1.7c0 0 8.6 10.1 8 20.5 0 0-37.9 3.8-48 3.6-10.1-0.2-14.7-12.2-21.2-21.2-6.5-9-12.8-26.1-15.2-40.3z"/>
								<path id="&lt;Path&gt;" class="s16" d="m455.8 180.5v8.9"/>
								<path id="&lt;Path&gt;" class="s7" d="m480.1 179.2c0 0 6.8 10 7.1 20.8l8-0.7c0 0 0.8-11.1-8-20.5z"/>
							</g>
							<g id="&lt;Group&gt;">
								<path id="&lt;Path&gt;" class="s17" d="m410.8 132.7v10.3h-15.2l1.3-7.5c0 0 6.1-4.9 13.9-2.8z"/>
								<path id="&lt;Path&gt;" class="s17" d="m408.2 97.3c3.6 1.1 6.9 5.2 9.2 10.7 2.3 5.6 4.4 15.5-1 20.9-5.4 5.4-18.2 9.4-27.2 4.4-8.9-5-8.4-18.2-5.5-26.6 2.9-8.4 11.7-13.2 24.5-9.4z"/>
								<path id="&lt;Path&gt;" class="s28" d="m416.4 112.4c0 0.7-0.6 1.4-1.4 1.4-0.8 0-1.5-0.7-1.5-1.4 0-0.8 0.7-1.5 1.5-1.5 0.8 0 1.4 0.7 1.4 1.5z"/>
								<path id="&lt;Path&gt;" class="s20" d="m416.4 120.5c0 0 1.3 2 3.1 1.7"/>
								<path id="&lt;Path&gt;" class="s22" d="m414.3 122c0 3.4-2.8 6.1-6.2 6.1-3.4 0-6.1-2.7-6.1-6.1 0-3.5 2.7-6.2 6.1-6.2 3.4 0 6.2 2.7 6.2 6.2z"/>
								<path id="&lt;Path&gt;" class="s28" d="m414.3 98.1c0 0-3.3 7.5-5.9 10.3v35.4l-34.8 1.5c0 0-1.4-10.9 3.4-14.7 0 0-2.7-16.4 2.3-27.1 5-10.7 14-12.7 19.9-12.9 5.9-0.1 13 3.1 15.1 7.5z"/>
								<path id="&lt;Path&gt;" class="s17" d="m403.4 110v16.4c0 0-8.4 0.6-8.6-8.2-0.2-8.8 8.6-8.2 8.6-8.2z"/>
							</g>
						</g>
						<g id="&lt;Group&gt;">
							<g id="&lt;Group&gt;">
								<path id="&lt;Path&gt;" class="s12" d="m379.2 365.9c0 3.9-3.2 7.1-7.1 7.1-3.9 0-7-3.2-7-7.1 0-3.9 3.1-7 7-7 3.9 0 7.1 3.1 7.1 7z"/>
								<g id="&lt;Group&gt;">
									<path id="&lt;Path&gt;" class="s12" d="m414.6 349.8h-4.9v-96.5h4.9z"/>
									<path id="&lt;Path&gt;" class="s12" d="m369.7 359.5l40-13.5 2.5 3.8-38.5 13.5z"/>
									<path id="&lt;Path&gt;" class="s12" d="m455 359.5l-40-13.5-2.4 3.8 38.4 13.5z"/>
								</g>
								<path id="&lt;Path&gt;" class="s12" d="m445.6 365.9c0 3.9 3.1 7.1 7 7.1 3.9 0 7.1-3.2 7.1-7.1 0-3.9-3.2-7-7.1-7-3.9 0-7 3.1-7 7z"/>
							</g>
							<path id="&lt;Path&gt;" class="s3" d="m393.8 158.1c-13.3 0.4-27.5 2.2-33.6 14-6.1 11.9-9 40.7 2.3 62.5 11.4 21.7 40.9 24.4 61.2 18.7 20.2-5.6 24.8-21.3 26.7-28.7 1.9-7.3-5.7-21.6-16.2-30.4-10.5-8.7-6.3-18.7-11.2-25.2-4.8-6.5-19.6-11.3-29.2-10.9z"/>
						</g>
					</g>
				</g>
			</g>
			<path id="&lt;Path&gt;" class="s25" d="m522.9 19.4c0 0 39.5 14.7 51.8 62.5"/>
			<path id="&lt;Path&gt;" class="s26" d="m347.2 206.2c0 0-5.3 48.7 38.4 55.3"/>
		</g>
		<g id="&lt;Group&gt;">
			<path id="&lt;Path&gt;" class="s0" d="m918.6 122.9c0 48.2-39 87.2-87.1 87.2-48.2 0-87.2-39-87.2-87.2 0-48.1 39-87.1 87.2-87.1 48.1 0 87.1 39 87.1 87.1z"/>
			<g id="&lt;Group&gt;">
				<g id="&lt;Group&gt;">
					<path id="&lt;Path&gt;" class="s15" d="m785.9 110.6h-63v-109.8h63z"/>
					<path id="&lt;Path&gt;" class="s4" d="m782.3 105.8h-55.8v-100.4h55.8z"/>
					<path id="&lt;Path&gt;" class="s7" d="m744.2 19.5c-1.9 1.2-1.6 2.1-1.3 2.7 0.2 0.7-2.7 5.4-1.4 9.9 1.4 4.5 7 5.9 7.9 7 0.9 1.1 2 1.4 3.1 1.1 1.2-0.2 0.7-1.8 1.4-3.1 0.7-1.4 1.3-6 0-9.6-1.4-3.7-5.9-5.9-7.4-5.7 0 0-0.7-3.2-2.3-2.3z"/>
					<path id="&lt;Path&gt;" class="s10" d="m747.9 19.4c0 0-1.2-6.3 5.1-9.1 0 0 2.7 8.4-5.1 9.1z"/>
					<path id="&lt;Path&gt;" class="s7" d="m762.1 52.1c-2.1-0.8-2.6 0-3 0.6-0.4 0.6-5.9 1.1-8.6 4.9-2.8 3.9-0.4 9.1-0.8 10.5-0.3 1.4 0.2 2.5 1.1 3.2 0.8 0.8 1.8-0.6 3.3-0.8 1.5-0.3 5.6-2.6 7.6-5.9 2.1-3.3 1.1-8.2 0-9.4 0 0 2.1-2.4 0.4-3.1z"/>
					<path id="&lt;Path&gt;" class="s10" d="m740.2 21.7c0 0-3.2-5-9.5-1.1 0 0 4.7 7.2 9.5 1.1z"/>
					<path id="&lt;Path&gt;" class="s10" d="m757.5 50.4c0 0 3.2-3.2 0-8.9 0 0-4.6 7.3 0 8.9z"/>
					<path id="&lt;Path&gt;" class="s10" d="m765.3 55.6c0 0 3.9-5.4 9.7-2.1 0 0-4.7 6-9.7 2.1z"/>
					<path id="&lt;Path&gt;" class="s7" d="m742.8 79.3c-1.6 1.6-1 2.3-0.7 2.9 0.4 0.6-1.3 5.9 1.1 9.9 2.4 4.1 8.2 4 9.4 4.9 1.1 0.9 2.2 0.8 3.3 0.3 1-0.5 0.2-1.9 0.5-3.4 0.4-1.4-0.1-6.1-2.3-9.3-2.2-3.2-7.1-4.3-8.6-3.7 0 0-1.4-2.9-2.7-1.6z"/>
					<path id="&lt;Path&gt;" class="s10" d="m747.3 77.5c0 0-3.8-1.5-2.6-8.7 0 0 5.1 3.5 2.6 8.7z"/>
					<path id="&lt;Path&gt;" class="s10" d="m753.4 76.9c0 0 1.6-2.6 4.7-3.6 3.1-0.9 6.1 2.6 6.1 2.6 0 0-2.5 2.5-4.9 3.2-2.4 0.8-5.9-2.2-5.9-2.2z"/>
				</g>
				<g id="&lt;Group&gt;">
					<path id="&lt;Path&gt;" class="s7" d="m827.6 108.6c-29.4 1.8-76.8 12.1-84.9 47.8-8 35.7-12.8 96.6 4 114.6 16.9 18.1 56.5 20.2 84 19.7 27.5-0.4 68.7-11.3 87.6-33.3 18.8-22 7.6-128.9-22.9-140.2-30.4-11.3-53.9-9.4-67.8-8.6z"/>
					<g id="&lt;Group&gt;">
						<path id="&lt;Path&gt;" class="s17" d="m850.9 113.2c0 14.4-9.1 24.6-24.2 24.6-16.5 0-24.2-10.2-24.2-24.6 0-14.4 10.8-26.1 24.2-26.1 13.4 0 24.2 11.7 24.2 26.1z"/>
						<path id="&lt;Path&gt;" class="s15" d="m855.1 103.1v5.5c0 0-4.8-0.7-6.2-1.6-1.3-0.9-2.1-4.2-2.1-4.2 0 0 5.5-3.1 8.3 0.3z"/>
						<path id="&lt;Path&gt;" class="s15" d="m798.2 104.6v5.5c0 0 4.7-0.7 6.1-1.6 1.4-0.9 2.1-4.2 2.1-4.2 0 0-5.5-3.1-8.2 0.3z"/>
						<path id="&lt;Path&gt;" class="s17" d="m804.3 108.5c0 0-5.2-1.7-7.8 1.3-2.5 3-2.2 8 0 11.4 2.3 3.4 6.4 4.6 8 3.3 0 0 1.2-13.6-0.2-16z"/>
						<path id="&lt;Path&gt;" class="s17" d="m849.8 107.5c0 0 5.2-1.6 7.8 1.4 2.5 3 2.2 7.9 0 11.4-2.3 3.4-7.9 5.1-9.5 3.8 0 0 0.3-14.1 1.7-16.6z"/>
						<path id="&lt;Path&gt;" class="s20" d="m827.7 112.2c0 0-1 5.7-1 7.9 0 2.2 1.7 2.2 2.4 2"/>
						<path id="&lt;Path&gt;" class="s15" d="m841.1 115.2c0 1.1-0.8 2-1.9 2-1.1 0-2-0.9-2-2 0-1 0.9-1.9 2-1.9 1.1 0 1.9 0.9 1.9 1.9z"/>
						<path id="&lt;Path&gt;" class="s29" d="m836.8 110.3c0 0 2.1-1.1 4.8 0"/>
						<path id="&lt;Path&gt;" class="s20" d="m823.3 124.5c0 0 3.7 7 9.3 0.5"/>
						<path id="&lt;Path&gt;" class="s22" d="m839 135c0 0-4.6-16.4 11.9-21.8 0 0 0.3 15.4-11.9 21.8z"/>
						<path id="&lt;Path&gt;" class="s22" d="m813.9 135c0 0 5.1-16.4-11.4-21.8 0 0-0.9 15.4 11.4 21.8z"/>
						<path id="&lt;Path&gt;" class="s29" d="m847.6 113.5c0 4.7-3.7 8.4-8.4 8.4-4.7 0-8.5-3.7-8.5-8.4 0-4.7 3.8-8.4 8.5-8.4 4.7 0 8.4 3.7 8.4 8.4z"/>
						<path id="&lt;Path&gt;" class="s29" d="m824.1 113.5c0 4.7-3.8 8.4-8.5 8.4-4.6 0-8.4-3.7-8.4-8.4 0-4.7 3.8-8.4 8.4-8.4 4.7 0 8.5 3.7 8.5 8.4z"/>
						<path id="&lt;Path&gt;" class="s15" d="m817.6 116.3c0 1.1-0.9 1.9-2 1.9-1.1 0-1.9-0.8-1.9-1.9 0-1.1 0.8-2 1.9-2 1.1 0 2 0.9 2 2z"/>
						<path id="&lt;Path&gt;" class="s29" d="m813.2 111.3c0 0 2.2-1 4.8 0"/>
						<path id="&lt;Path&gt;" class="s15" d="m830.5 84.2c0 0-1.5 11.9-9 16.4-7.4 4.6-28.1 4.5-30.3 3.3-2.2-1.1 5.8-16.3 15.2-21.2 9.4-4.8 18.6-4.8 24.1 1.5z"/>
						<path id="&lt;Path&gt;" class="s29" d=""/>
						<path id="&lt;Path&gt;" class="s15" d="m830.5 84.2c0 0 6 23.4 25.5 21.3 0 0 1.1-9.4-3.1-16.8-3.6-6.3-14.2-9.1-22.4-4.5z"/>
						<path id="&lt;Path&gt;" class="s15" d="m830.5 84.2c0 0-1.8-11.9 8.3-15.4 0 0 1.3 0.3-1.1 3.3-2.4 3-7.2 12.1-7.2 12.1z"/>
						<path id="&lt;Path&gt;" class="s30" d="m829.8 100.3c0 0 3.5-6.6 0.7-16.1"/>
						<path id="&lt;Path&gt;" class="s29" d="m824.1 113.5c0 0 3.3-1.1 6.6 0"/>
					</g>
					<g id="&lt;Group&gt;">
						<path id="&lt;Path&gt;" class="s11" d="m785.4 231.9h84.4c0 0-2 21.3-7.5 26.5-5.5 5.2-13.7 12.2-19.7 14.2-5.9 2.1-37.2 5.5-50.5-9.5-13.3-15.1-6.7-31.2-6.7-31.2z"/>
						<g id="&lt;Group&gt;">
							<path id="&lt;Path&gt;" class="s3" d="m806.1 150.1l-20.7 81.8h84.4l-20.1-82.2z"/>
							<path id="&lt;Path&gt;" class="s3" d="m806.1 150.1c0 0-11-2.2-17.5 8.8-6.6 11.1-22 53.9-23 58.9-1.1 5-0.3 13.4 13 13.9 13.2 0.5 38.4 0 38.4 0l1.9-25.5-22.6-4.8 5.5-21.2c0 0 8.7-13 4.3-30.1z"/>
							<path id="&lt;Path&gt;" class="s3" d="m849.6 150.1c0 0 10.9-2.2 17.5 8.8 6.6 11.1 21.9 53.9 23 58.9 1 5 0.2 13.4-13 13.9-13.3 0.5-38.5 0-38.5 0l-1.8-25.5 22.5-4.8-5.5-21.2c0 0-8.7-13-4.2-30.1z"/>
							<path id="&lt;Path&gt;" class="s16" d="m853.8 180.2l5.5 21.2-22.5 4.8"/>
							<path id="&lt;Path&gt;" class="s16" d="m801.8 180.2l-5.5 21.2 22.6 4.8"/>
						</g>
						<path id="&lt;Path&gt;" class="s10" d="m815.6 328l54.2-101.7c0 0 13.8-24.5 36.2-14.9 22.5 9.6 0.4 47.3-6.4 60.5-6.8 13.2-44.5 87.1-44.5 87.1z"/>
						<path id="&lt;Path&gt;" class="s5" d="m824.5 311.4l37.8 33.5"/>
						<path id="&lt;Path&gt;" class="s23" d="m827.9 337.7c0 0-4.4 6.3-5.7 8.4-1.2 2.1 0.2 6.8 2.3 12 2.1 5.2 4.9 11 5.2 15.8 0.4 4.9 3.7 13.1 12.7 13.2 9 0.2 10.3-1 8.5-6.9-1.7-5.9-8.9-19.3-5.8-29.1z"/>
						<path id="&lt;Path&gt;" class="s24" d="m826 340.4c0 0 3.5 4.5 3 8.5-0.5 4-4.1 10.1-4.1 10.1 0 0-4.4-10.1-2.7-12.9 1.8-2.7 3.8-5.7 3.8-5.7z"/>
						<path id="&lt;Path&gt;" class="s24" d="m829.7 373.9c0 0 7.6-2.1 13.7 0 6.1 2.2 6.9 4.5 6.9 4.5 0 0 4.4 7.3-1.8 8.4-6.1 1.2-10.9 0.2-14.4-3-3.5-3.3-4.1-8-4.4-9.9z"/>
						<path id="&lt;Path&gt;" class="s10" d="m822.8 289.4l-106.4-44.1c0 0-25.8-11.3-18.4-34.6 7.3-23.2 47-4.9 60.8 0.6 13.8 5.4 91 35.8 91 35.8z"/>
						<path id="&lt;Path&gt;" class="s5" d="m805.4 282.2l29.7-40.9"/>
						<path id="&lt;Path&gt;" class="s17" d="m839.6 263.1l3 3.1-11.1 16-2.1-3.1z"/>
						<path id="&lt;Path&gt;" class="s23" d="m835.5 290.7l-4-8.5 11.1-16 3.7 4.3z"/>
						<path id="&lt;Path&gt;" class="s17" d="m819.5 137c0 0 0.6 8.1 0 10.8-0.7 2.7-13.4 2.3-13.4 2.3 0 0 3.4 11 20.6 10.9 17.2-0.2 23-11.3 23-11.3 0 0-11.5-0.5-12.9-1.9-1.3-1.4-1.2-11.4-1.2-11.4 0 0-4.9-3.4-16.1 0.6z"/>
						<g id="&lt;Group&gt;">
							<path id="&lt;Path&gt;" class="s24" d="m861.5 231.9h-62.6l-2.7-43.5h68.4z"/>
							<path id="&lt;Path&gt;" class="s12" d="m861.5 234.8h-62.6v-2.9h62.6z"/>
							<path id="&lt;Path&gt;" class="s18" d="m836.2 211.3c0 3-2.7 5.5-6 5.5-3.3 0-6-2.5-6-5.5 0-3 2.7-5.4 6-5.4 3.3 0 6 2.4 6 5.4z"/>
						</g>
					</g>
					<path id="&lt;Path&gt;" class="s20" d="m819.5 137c0 0 7.5 3.2 16.1-0.6"/>
				</g>
				<g id="&lt;Group&gt;">
					<g id="&lt;Group&gt;">
						<path id="&lt;Path&gt;" class="s10" d="m882.9 73.8c0 0 6.4 6.1 14 5.7 7.7-0.4 20.9-5.2 31.3 0 10.5 5.2 13.7 18 12.5 25.6 0 0-33.7 5.6-45.7-2.4-12.1-8-12.1-28.9-12.1-28.9z"/>
						<path id="&lt;Path&gt;" class="s8" d="m882.9 73.8c0 0 6.1 8.5 20.5 8.9 14.4 0.4 32-1.2 37.3 22.4 0 0-26.9 4.8-40.3 0-13.4-4.8-16.7-16.9-17.5-31.3z"/>
						<path id="&lt;Path&gt;" class="s10" d="m970.3 117.5c0 0 9.6-5.4 16.5-0.5 6.8 5 8.8 23.8 8.8 23.8 0 0-23.3-12.8-25.3-23.3z"/>
						<path id="&lt;Path&gt;" class="s31" d="m940.7 105.1c0 0 5.6 1.3 5.6 9.9 0 8.6 0 55.6 0 55.6"/>
						<path id="&lt;Path&gt;" class="s11" d="m954.9 153.2c0 0 6-9.2 15.6-7.2 9.6 2 10.2 9.2 10.2 9.2z"/>
						<path id="&lt;Path&gt;" class="s31" d="m957.1 153.2c0 0-4 0.1-4.4 18.9"/>
						<path id="&lt;Path&gt;" class="s31" d="m927.4 129c0 0 18.9-5.7 18.9 9.7"/>
						<path id="&lt;Path&gt;" class="s10" d="m904.4 129.1c0 0-6.6-6.3-11.4-4.7-4.8 1.6-10.8 20-6.4 28.8 0 0 17.5-13.7 17.8-24.1z"/>
						<path id="&lt;Path&gt;" class="s8" d="m928.7 129.6c3.6-5.2-14.9-13.3-26.5 2-11.6 15.2-11.6 18.8-15.6 21.6 0 0 26.8-1.5 42.1-23.6z"/>
						<path id="&lt;Path&gt;" class="s8" d="m946.3 127.1c0 0 11.2-12.8 24-9.6 12.8 3.2 22.9 16.5 25.3 23.3 0 0-16.9 1.3-29.7-2.1-12.8-3.5-19.6-11.6-19.6-11.6z"/>
					</g>
					<path id="&lt;Path&gt;" class="s24" d="m961.2 275.9h-25.7c-5.8 0-10.6-4.5-11-10.3l-6.5-96.7h60.7l-6.5 96.7c-0.4 5.8-5.2 10.3-11 10.3z"/>
					<path id="&lt;Path&gt;" class="s12" d="m919.4 188.7h58l1.3-19.8h-60.7z"/>
				</g>
			</g>
			<path id="&lt;Path&gt;" class="s25" d="m796.2 34.5c0 0 47.3-18.2 86.7 8.7"/>
			<path id="&lt;Path&gt;" class="s32" d="m730.7 266.2c0 0 3.6 34.2 69.1 33.8"/>
			<path id="&lt;Path&gt;" class="s33" d="m980.7 231.9l-2 36.7c0 0-4.2 13.6-15.4 13.6"/>
		</g>
	</g>
</svg>