<svg version="1.2" xmlns="http://www.w3.org/2000/svg" viewBox="0 0 366 392" width="366" height="392">
	<title>4888564-ai</title>
	<style>
		.s0 { opacity: .2;fill: #63cfe8 } 
		.s1 { opacity: .2;fill: #155897 } 
		.s2 { fill: #223147 } 
		.s3 { fill: #f49231 } 
		.s4 { fill: #f7f8f9 } 
		.s5 { fill: #fd6c6b } 
		.s6 { opacity: .3;fill: #223147 } 
		.s7 { fill: #ffffff } 
		.s8 { fill: none;stroke: #000000;stroke-miterlimit:10;stroke-width: 2 } 
		.s9 { fill: #f9b88c } 
		.s10 { opacity: .3;fill: #fd6c6b } 
		.s11 { fill: #155897 } 
		.s12 { fill: #63cfe8 } 
		.s13 { opacity: .5;fill: #ffffff } 
		.s14 { fill: #101a46 } 
		.s15 { opacity: .3;fill: #ffffff } 
		.s16 { fill: #00a58c } 
		.s17 { opacity: .1;fill: #223147 } 
	</style>
	<g id="OBJECTS">
		<g id="&lt;Group&gt;">
			<g id="&lt;Group&gt;">
				<path id="&lt;Path&gt;" class="s0" d="m266.2 356.1c46.6-7.1 82.3-47.4 82.3-95.9 0-30-13.7-56.8-35-74.6 9-14.8 14.3-32.1 14.3-50.7 0-53.6-43.5-97-97-97-53 0-96 42.5-97 95.2-6-0.9-12.2-1.5-18.5-1.5-63.5 0-115 51.5-115 115 0 51.3 33.7 94.7 80 109.5z"/>
				<g id="&lt;Group&gt;">
					<g id="&lt;Group&gt;">
						<path id="&lt;Path&gt;" class="s1" d="m358.8 379h-19.3c1.7-1.1 2.9-3.1 2.9-5.4 0-1.7-0.6-3.2-1.7-4.4h12.6c3.6 0 6.5-2.9 6.5-6.5 0-3.6-2.9-6.5-6.5-6.5h-297.4c-3.6 0-6.5 2.9-6.5 6.5 0 1.7 0.6 3.2 1.7 4.3h-12.6c-3.6 0-6.6 3-6.6 6.6 0 3.6 3 6.5 6.6 6.5h19.3c-1.8 1.2-3 3.2-3 5.5 0 3.6 3 6.5 6.6 6.5h297.4c3.5 0 6.5-2.9 6.5-6.5 0-3.6-3-6.6-6.5-6.6z"/>
					</g>
					<g id="&lt;Group&gt;" style="opacity: .3">
						<path id="&lt;Path&gt;" class="s2" d="m340.7 367.3h-289.6c-0.2 0-0.3-0.1-0.3-0.3 0-0.1 0.1-0.2 0.3-0.2h289.6c0.1 0 0.3 0.1 0.3 0.2 0 0.2-0.2 0.3-0.3 0.3z"/>
					</g>
					<g id="&lt;Group&gt;" style="opacity: .3">
						<path id="&lt;Path&gt;" class="s2" d="m339.5 379.3h-281.7c-0.2 0-0.3-0.1-0.3-0.3 0-0.1 0.1-0.2 0.3-0.2h281.7c0.1 0 0.2 0.1 0.2 0.2 0 0.2-0.1 0.3-0.2 0.3z"/>
					</g>
				</g>
			</g>
			<g id="&lt;Group&gt;">
				<path id="&lt;Path&gt;" class="s3" d="m90.8 371.5l0.2 0.1c1.9 0.7 3.9-0.3 4.5-2.2l52.3-151.2c0.6-1.8-0.4-3.8-2.2-4.5l-0.2-0.1c-1.9-0.6-3.9 0.4-4.5 2.2l-52.3 151.3c-0.6 1.8 0.4 3.8 2.2 4.4z"/>
				<path id="&lt;Path&gt;" class="s3" d="m197.7 225.1c0 4.2-17.4 7.7-38.9 7.7-21.4 0-38.8-3.5-38.8-7.7 0-4.2 17.4-7.7 38.8-7.7 21.5 0 38.9 3.5 38.9 7.7z"/>
				<path id="&lt;Path&gt;" class="s4" d="m197.7 219.2c0 4.2-17.4 7.7-38.9 7.7-21.4 0-38.8-3.5-38.8-7.7 0-4.2 17.4-7.6 38.8-7.6 21.5 0 38.9 3.4 38.9 7.6z"/>
				<path id="&lt;Path&gt;" class="s3" d="m159 383.6h-0.3c-1.8 0-3.4-1.6-3.4-3.5v-159.2c0-1.9 1.6-3.5 3.4-3.5h0.3c1.8 0 3.4 1.6 3.4 3.5v159.2c0 1.9-1.6 3.5-3.4 3.5z"/>
				<path id="&lt;Path&gt;" class="s3" d="m231.6 371.5l-0.2 0.1c-1.9 0.7-3.9-0.3-4.5-2.2l-52.3-151.2c-0.6-1.8 0.4-3.8 2.2-4.5l0.2-0.1c1.9-0.6 3.9 0.4 4.5 2.2l52.3 151.3c0.6 1.8-0.4 3.8-2.2 4.4z"/>
				<path id="&lt;Path&gt;" class="s3" d="m204.3 329.3h-90.9c-1.6 0-2.9-1.3-2.9-2.8v-0.2c0-1.6 1.3-2.9 2.9-2.9h90.9c1.6 0 2.9 1.3 2.9 2.9v0.2c0 1.5-1.3 2.8-2.9 2.8z"/>
			</g>
			<g id="&lt;Group&gt;">
				<path id="&lt;Path&gt;" class="s5" d="m149.9 23.1c0 0-13.1 39.8-19.7 48.8-6.5 9.1-44.3 51.5-9.6 71.1 34.8 19.7 92.8 5.6 84.2-42.8-8.6-48.4 0-71.6 0-71.6 0 0-38.8-31.7-54.9-5.5z"/>
				<path id="&lt;Path&gt;" class="s6" d="m194.6 49.7c0.3-3.4 3.4-11.3 1.9-14.5-0.7-1.4-7.5-3-10.1-3.8-5.8-1.8-11.5-3.5-16.9-5.7-5.4 12.6-10.9 25.2-18.2 36.9-6.2 9.9-14.9 18.2-20.5 28.3-6 10.7-11.2 29.1 1.4 37.4 18.9 12.5 45.6 0.5 57.9-15.1 15.3-19.1 2.7-41.8 4.5-63.5z"/>
				<path id="&lt;Path&gt;" class="s7" d="m196.5 152c-1-17.8-1.6-35.6-3.2-53.4l-10-3.7c-4.9 1.9-8.5 1.7-11.7 1.9-3.3-0.5-9.5-0.2-14.1-2.6l-13.5 3.5c-0.2 19.2 2.8 38.5-1.2 57.4-2.5 11.7-10.6 27.8-7.6 40.1 1 0.3 1.6 0.4 1 0.3q1.9 0.3 3.7 0.6c11.6 1.7 23.2 2.3 34.9 1.9 1.9-0.1 9.7-1 1 0.1 2.7-0.4 5.5-0.6 8.2-1q8.5-1.2 16.8-3 0.5-0.2 1.1-0.3c-0.4-13.9-4.7-27.9-5.4-41.8z"/>
				<path id="&lt;Path&gt;" class="s8" d="m127.9 193.8c0 0-7.5 30.3 37.9 28.7 0 0 41-4.4 36.5-42.1 0 0-64.2-2.6-74.4 13.4z"/>
				<path id="&lt;Path&gt;" class="s2" d="m200.3 100c0 0 11.9 2.6 14.3 17.5 2.4 14.8 12.3 51.8 7.6 54.8-4.8 3.1-21.8 4.2-25.5-41.3 0 0-8.7-25.7 3.6-31z"/>
				<path id="&lt;Path&gt;" class="s2" d="m212.7 173.3c0 0 39.2 5.7 72.3-2l2-12.8-66.6-6c0 0-14.6 10.5-7.7 20.8z"/>
				<path id="&lt;Path&gt;" class="s9" d="m182.6 75.7l0.3 20c0 0-14.6 11.7-24.7-2.7l3-18.9z"/>
				<path id="&lt;Path&gt;" class="s10" d="m171 100.2c6.5-0.2 11.9-4.5 11.9-4.5l-0.3-20-10.4-0.8c-1 8.4-0.6 16.9-1.2 25.3z"/>
				<path id="&lt;Path&gt;" class="s9" d="m180.4 86.1l1.7 0.1c14.1 0.8 26.3-10.2 27-24.3l1.5-27.9c0.7-14.1-10.2-26.2-24.3-27l-1.8-0.1c-14.1-0.7-26.2 10.2-27 24.3l-1.5 27.9c-0.7 14.1 10.2 26.3 24.4 27z"/>
				<path id="&lt;Path&gt;" class="s11" d="m202 178.8c0 0 69.7 24.1 66.7 38.5 0 0 0.6 14-13.6 15.7-14.2 1.6-84.7-25.7-84.7-25.7 0 0 14.8-40.6 31.6-28.5z"/>
				<path id="&lt;Path&gt;" class="s11" d="m169.7 186.6c0 0 69.6 24.2 66.7 38.6 0 0 0.5 13.9-13.7 15.6-14.2 1.7-84.7-25.6-84.7-25.6 0 0 14.9-40.7 31.7-28.6z"/>
				<path id="&lt;Path&gt;" class="s11" d="m269 219.1c0 0 6.6 14.7-54.6 96.8l-14.2-4.9c0 0 28.1-95.5 47.7-99.8 19.6-4.4 21.3 3.6 21.1 7.9z"/>
				<path id="&lt;Path&gt;" class="s9" d="m200.2 311c0 0-9.2 14.4-3.8 18 5.3 3.6 41.5 14.5 41.5 14.5 0 0 5.6-9-6.2-12.3-11.8-3.2-16-14.9-16-14.9z"/>
				<path id="&lt;Path&gt;" class="s2" d="m186.9 95.9c0 0 9.8 100 12.7 104.9 3 4.9 19.7 0 19.7 0l-15.7-99.9z"/>
				<path id="&lt;Path&gt;" class="s2" d="m157.5 94.2c0 0 14.7 98.7 6.9 132.1 0 0-34.4 4.9-44.2-21.6 0 0 8.9-24.5 8.9-31.4 0-6.8 6.5-75.7 6.5-75.7 0 0 14.1-7.1 21.9-3.4z"/>
				<path id="&lt;Path&gt;" class="s2" d="m136.9 97.3c0 0 11.9 2.4 14.6 17.2 2.6 14.8 13.3 51.6 8.6 54.7-4.7 3.2-14.8-1.2-26.3-40.9 0 0-9.2-25.5 3.1-31z"/>
				<path id="&lt;Path&gt;" class="s5" d="m198.8 5.1c-0.5-0.4-2-1-2-1-0.8-0.3 0.1-0.1-0.7-0.3-35.1-14.3-47.6 23-47.6 23l1.5 12.3c5.6-5 14.7 8.5 14.7 8.5 15-4.3 24.9-17.3 30.1-25.9 2.7 4.5 9.5 14.6 17 15 0 0 4.3-22.1-13-31.6z"/>
				<path id="&lt;Path&gt;" class="s12" d="m235.9 314.2c-3.4-1.5-7-2.1-10.3-1.9l-8.7 19.5-27.1-12c-1.7-0.8-3.8 0-4.6 1.8-0.7 1.7 0 3.8 1.8 4.5l46.4 20.7c0.9 0.4 1.9 0.3 2.8 0l0.3 0.1c4.7-1.4 8.5-4.4 10.5-8.9 3.8-8.7-1.1-19.4-11.1-23.8z"/>
				<path id="&lt;Path&gt;" class="s13" d="m235.9 314.2c-2.4-1.1-4.9-1.7-7.3-1.9 8.1 8.5 11.4 20.5 11.3 33.2 3.1-1.6 5.6-4.2 7.1-7.5 3.8-8.7-1.1-19.4-11.1-23.8z"/>
				<path id="&lt;Path&gt;" class="s11" d="m237 222.3c0 0 6.1 14-52.3 92.6l-13.2-4.7c0 0 27.2-91.4 45.7-95.5 18.5-4.1 20 3.5 19.8 7.6z"/>
				<path id="&lt;Path&gt;" class="s9" d="m171.5 310.1c0 0-9.3 14.4-4 18 5.4 3.6 41.4 14.7 41.4 14.7 0 0 5.7-9-6.1-12.3-11.8-3.3-18.1-15.6-18.1-15.6z"/>
				<path id="&lt;Path&gt;" class="s12" d="m205.5 317.8c-3.4-1.5-7-2.1-10.3-1.9l-8.7 19.6-27.1-12.1c-1.7-0.7-3.8 0.1-4.5 1.8-0.8 1.7 0 3.8 1.7 4.6l46.4 20.6c1 0.4 2 0.4 2.8 0l0.4 0.1c4.6-1.4 8.4-4.4 10.4-8.8 3.9-8.8-1.1-19.5-11.1-23.9z"/>
				<path id="&lt;Path&gt;" class="s13" d="m205.5 317.8q-2.5-1.1-5.1-1.6c8.8 8.3 11.8 20.1 10.9 31.9 2.3-1.6 4.1-3.8 5.3-6.4 3.9-8.8-1.1-19.5-11.1-23.9z"/>
				<g id="&lt;Group&gt;" style="opacity: .7">
					<path id="&lt;Path&gt;" class="s2" d="m211.1 277.1q-0.1 0-0.3-0.1c-0.2-0.2-0.3-0.5-0.1-0.7 0.4-0.5 36.8-50.3 39.7-54.8 2.6-4.1 4.2-11.9-0.3-16.5-0.2-0.2-0.2-0.5 0-0.7 0.2-0.2 0.5-0.2 0.7 0 5 5 3.3 13.4 0.5 17.8-2.9 4.5-38.3 52.7-39.8 54.8q-0.1 0.2-0.4 0.2z"/>
				</g>
				<g id="&lt;Group&gt;" style="opacity: .7">
					<path id="&lt;Path&gt;" class="s2" d="m200.3 236.9q-0.3 0-0.4-0.1c-0.2-0.2-0.2-0.6 0-0.8 0.2-0.2 5.5-5 10.1-7.6 0.3-0.1 0.6 0 0.7 0.3 0.2 0.2 0.1 0.5-0.2 0.7-4.5 2.4-9.8 7.4-9.9 7.4q-0.1 0.1-0.3 0.1z"/>
				</g>
				<g id="&lt;Group&gt;" style="opacity: .7">
					<path id="&lt;Path&gt;" class="s2" d="m187.3 311.4q-0.1 0-0.2 0l-14.2-5.1c-0.3-0.1-0.4-0.4-0.3-0.6 0.1-0.3 0.4-0.4 0.6-0.3l14.3 5c0.2 0.1 0.4 0.4 0.3 0.6-0.1 0.3-0.3 0.4-0.5 0.4z"/>
				</g>
				<g id="&lt;Group&gt;" style="opacity: .7">
					<path id="&lt;Path&gt;" class="s2" d="m216.6 312.2q-0.1 0-0.2 0l-15.1-5c-0.2-0.1-0.4-0.4-0.3-0.7 0.1-0.2 0.4-0.4 0.7-0.3l15 5c0.3 0.1 0.4 0.4 0.4 0.7-0.1 0.2-0.3 0.3-0.5 0.3z"/>
				</g>
				<g id="&lt;Group&gt;" style="opacity: .5">
					<path id="&lt;Path&gt;" class="s2" d="m172.5 103.7c-8.2 0-15.3-4.9-15.4-5l0.6-0.8c0.7 0.5 17.5 12.1 28.8-2.3l0.8 0.6c-4.5 5.7-9.9 7.5-14.8 7.5z"/>
				</g>
				<g id="&lt;Group&gt;" style="opacity: .4">
					<g id="&lt;Group&gt;">
						<path id="&lt;Path&gt;" class="s12" d="m163 174.4q-0.1 0-0.2-0.1c-0.5-0.1-12.1-4-15.1-5.2-3.1-1.2-10.1-28.9-11.5-34.5-0.1-0.3 0.1-0.5 0.4-0.6 0.3-0.1 0.6 0.1 0.6 0.4 3.9 15.8 9.1 33 10.9 33.7 3 1.2 14.9 5.2 15 5.3 0.3 0.1 0.4 0.3 0.3 0.6 0 0.2-0.2 0.4-0.4 0.4z"/>
					</g>
					<g id="&lt;Group&gt;">
						<path id="&lt;Path&gt;" class="s12" d="m157.1 155.4q-0.2 0-0.4-0.2c-0.2-0.2-0.1-0.5 0.1-0.7 0.5-0.4 4.6-3.4 7-3 0.3 0 0.4 0.3 0.4 0.6-0.1 0.3-0.3 0.4-0.6 0.4-1.6-0.3-5 1.9-6.2 2.8q-0.1 0.1-0.3 0.1z"/>
					</g>
					<g id="&lt;Group&gt;">
						<path id="&lt;Path&gt;" class="s12" d="m208.9 166c-0.3 0-0.5-0.2-0.5-0.4-0.1-0.6-2.6-13.7-1.5-17.8 2.5-8.9 2-11.8 1.2-12.6-1.8-1.8-5.8-14.1-6.3-15.5-0.1-0.3 0.1-0.5 0.3-0.6 0.3-0.1 0.6 0 0.7 0.3 1.2 3.7 4.6 13.7 6.1 15.1 1.5 1.5 1.2 5.7-1 13.6-1 3.9 1.5 17.1 1.5 17.3 0 0.3-0.2 0.5-0.4 0.6q-0.1 0-0.1 0z"/>
					</g>
					<g id="&lt;Group&gt;">
						<path id="&lt;Path&gt;" class="s12" d="m218 156.9q-0.3 0-0.4-0.2c-0.2-0.3-0.2-0.6 0.1-0.8l4.7-3.6c0.2-0.2 0.5-0.1 0.7 0.1 0.2 0.2 0.2 0.6-0.1 0.7l-4.7 3.7q-0.2 0.1-0.3 0.1z"/>
					</g>
					<g id="&lt;Group&gt;">
						<path id="&lt;Path&gt;" class="s12" d="m158.2 223.7c-23.8 0-37.1-21.3-37.2-21.5-0.2-0.3-0.1-0.6 0.1-0.7 0.3-0.2 0.6-0.1 0.8 0.1 0.1 0.3 15.9 25.6 43.8 20.4 0.2-0.1 0.5 0.1 0.6 0.4 0 0.3-0.2 0.6-0.5 0.6q-3.9 0.7-7.6 0.7z"/>
					</g>
					<g id="&lt;Group&gt;">
						<path id="&lt;Compound Path&gt;" fill-rule="evenodd" class="s12" d="m145 210q-1.2 0-2.6-0.3c-0.2-0.1-3.4-1.3-4.7-5-1.3-3.7-0.2-8.4 3.3-14l0.2-0.3 15.4 4.9-0.1 0.5c0 0.3-0.8 8.6-5.9 12.4q-2.4 1.8-5.6 1.8zm-3.3-18.4c-3.2 5.2-4.2 9.5-3.1 12.7 1.2 3.3 4.1 4.4 4.1 4.4 2.8 0.6 5.3 0.2 7.3-1.3 4.1-3.1 5.2-9.6 5.5-11.3z"/>
					</g>
				</g>
				<g id="&lt;Group&gt;" style="opacity: .5">
					<path id="&lt;Path&gt;" class="s2" d="m200.2 316.9l-0.9-0.4-10.8 23.7-33.6-14.3-0.4 1 52.6 22.3 0.4-0.9-18.1-7.7z"/>
					<path id="&lt;Path&gt;" class="s2" d="m218 336.4l-0.4 0.9 20.6 8.3 0.3-0.9z"/>
					<path id="&lt;Path&gt;" class="s2" d="m232.3 314l-0.9-0.4-10.8 23.8 0.9 0.4z"/>
				</g>
				<path id="&lt;Path&gt;" class="s2" d="m192.3 49.4c-0.3 1.7-1.4 2.9-2.5 2.7-1-0.2-1.6-1.7-1.4-3.4 0.3-1.6 1.4-2.8 2.5-2.7 1 0.2 1.7 1.7 1.4 3.4z"/>
				<path id="&lt;Path&gt;" class="s2" d="m209 49c-0.2 1.8-1.1 3.2-2 3.1-0.8-0.1-1.4-1.6-1.2-3.4 0.2-1.8 1-3.2 1.9-3.1 0.9 0.1 1.4 1.6 1.3 3.4z"/>
				<path id="&lt;Path&gt;" class="s9" d="m149.4 48.8c-0.3 5.6 2.5 10.4 6.3 10.6 3.7 0.2 7-4.3 7.3-9.9 0.3-5.7-2.5-10.4-6.3-10.6-3.7-0.2-7 4.2-7.3 9.9z"/>
				<path id="&lt;Path&gt;" class="s10" d="m152.4 48.9c-0.2 3.2 1.4 5.8 3.5 6 2.1 0.1 4-2.4 4.1-5.6 0.2-3.1-1.4-5.8-3.5-5.9-2.1-0.1-4 2.4-4.1 5.5z"/>
				<path id="&lt;Path&gt;" class="s5" d="m161.8 22.8c0 0 2.3 10.6-5.7 35.4-8 24.9-6.2 66.6 3.7 79.1 0 0-0.4-63.5 5.4-77 5.9-13.6 8.4-29.3-3.4-37.5z"/>
				<path id="&lt;Path&gt;" class="s7" d="m157.7 60.8c0 1.8-1.6 3.3-3.6 3.3-2 0-3.6-1.5-3.6-3.3 0-1.8 1.6-3.2 3.6-3.2 2 0 3.6 1.4 3.6 3.2z"/>
				<path id="&lt;Path&gt;" class="s5" d="m193.1 40.6c0 0-4.5-1-10.1 2.5 0 0-0.2 1.5 0.8 1.3 1-0.2 8-2.1 9.5-1.9 0 0 1.9-1-0.2-1.9z"/>
				<path id="&lt;Path&gt;" class="s5" d="m210.2 41.4c-3.2-0.8-5.4-0.3-5.4-0.3-2 0.8-0.1 1.8-0.1 1.8 0.8-0.1 3.1 0.4 5.3 0.9q0.1-1.2 0.2-2.4z"/>
				<path id="&lt;Path&gt;" class="s10" d="m189.2 53.6c0 0.7-1.4 1.2-3.1 1.2-1.7 0-3.1-0.5-3.1-1.2 0-0.7 1.4-1.2 3.1-1.2 1.7 0 3.1 0.5 3.1 1.2z"/>
				<path id="&lt;Path&gt;" class="s10" d="m209.4 53.8c0 0.6-0.9 1.1-2.1 1.1-1.2 0-2.1-0.5-2.1-1.1 0-0.6 0.9-1.1 2.1-1.1 1.2 0 2.1 0.5 2.1 1.1z"/>
				<path id="&lt;Compound Path&gt;" fill-rule="evenodd" class="s2" d="m212.5 49.3c-0.8 5.5-3.5 9.6-6.3 9.6q-0.2 0-0.4 0c-2.7-0.4-4.3-4.5-4-9.5h-0.1q-0.5-0.9-1.5-1.2c-1.4-0.3-3.3 0.6-3.7 0.8q-0.1 0.4-0.1 0.7c-0.4 2.8-1.4 5.4-2.9 7.2-1.4 1.7-3 2.6-4.6 2.6q-0.3 0-0.6 0c-1.8-0.3-3.4-1.6-4.3-3.9-1-2.1-1.3-4.9-0.9-7.8 0-0.3 0.1-0.6 0.2-1l-14.2-0.5 0.1-0.6 14.1 0.6v0.5c0.5-2.4 1.4-4.6 2.7-6.2 1.6-1.9 3.4-2.8 5.2-2.5 1.8 0.2 3.4 1.6 4.3 3.8 0.8 1.8 1.2 4.1 1 6.5 0.8-0.4 2.4-1 3.9-0.7 0.6 0.2 1 0.6 1.4 1q0-0.4 0.1-0.8c0.4-2.7 1.3-5.2 2.5-7 1.3-1.9 2.8-2.8 4.2-2.6 1.5 0.2 2.6 1.5 3.4 3.6 0.7 2.1 0.9 4.7 0.5 7.4zm-17.4-7.2c-0.9-2.1-2.3-3.3-3.9-3.5q-0.3-0.1-0.6-0.1c-1.4 0-2.9 0.9-4.2 2.4-1.4 1.8-2.4 4.3-2.8 7-0.4 2.8-0.1 5.4 0.8 7.5 0.9 2.1 2.3 3.3 3.9 3.6 1.7 0.2 3.3-0.6 4.8-2.4 1.4-1.8 2.4-4.2 2.8-7 0.4-2.7 0.1-5.4-0.8-7.5zm16.4 0c-0.7-1.9-1.7-3.1-3-3.3q-0.1 0-0.3 0c-1.1 0-2.3 0.8-3.4 2.4-1.2 1.7-2 4.1-2.4 6.7-0.7 5.4 0.8 10.1 3.4 10.5 2.7 0.3 5.4-3.8 6.2-9.1 0.3-2.7 0.2-5.2-0.5-7.2z"/>
				<g id="&lt;Group&gt;">
					<path id="&lt;Path&gt;" class="s5" d="m198.8 61.2c-0.1 0-0.2-0.1-0.3-0.2 0-0.1 0.1-0.2 0.3-0.2 0 0 3.9-0.4 4.8-2.7-0.4-0.8-3.5-5.6-1.9-9.6 0-0.1 0.2-0.2 0.3-0.1 0.1 0 0.2 0.2 0.2 0.3-1.6 4 1.9 9.2 1.9 9.2l0.1 0.1v0.1c-1 2.7-5.2 3.1-5.4 3.1q0 0 0 0z"/>
				</g>
				<g id="&lt;Group&gt;">
					<g id="&lt;Group&gt;">
						<path id="&lt;Path&gt;" class="s14" d="m192.7 65q0 0.1 0 0.3c0 3.7 2.4 6.7 5.5 6.7 3.1 0 5.6-3 5.6-6.7q0-0.2-0.1-0.3z"/>
					</g>
					<g id="&lt;Group&gt;">
						<path id="&lt;Path&gt;" class="s5" d="m194.7 70.4c1 1 2.2 1.6 3.5 1.6 1.5 0 2.9-0.8 3.9-1.9-2.3-1.2-5.2-1-7.4 0.3z"/>
					</g>
					<path id="&lt;Path&gt;" class="s7" d="m203.5 67.3q0.3-1 0.3-2 0-0.2-0.1-0.3h-11q0 0.1 0 0.3 0 1 0.2 2z"/>
				</g>
				<g id="&lt;Group&gt;">
					<g id="&lt;Group&gt;" style="opacity: .2">
						<path id="&lt;Path&gt;" class="s2" d="m147.1 38.4q-0.4 0-0.4 0c-0.3 0-0.6-0.2-0.5-0.5 0-0.3 0.2-0.5 0.5-0.5 0.2 0 26.1 0.7 44.6-21.1 0.2-0.2 0.5-0.2 0.7 0 0.3 0.2 0.3 0.5 0.1 0.7-17.6 20.6-41.5 21.4-45 21.4z"/>
					</g>
					<g id="&lt;Group&gt;" style="opacity: .2">
						<path id="&lt;Path&gt;" class="s2" d="m148.5 33.6c-0.3 0-0.5-0.2-0.5-0.4-0.1-0.3 0.1-0.6 0.3-0.7 0.3 0 28.4-7.5 37.9-21.8 0.1-0.2 0.4-0.3 0.7-0.1 0.2 0.2 0.3 0.5 0.1 0.7-9.7 14.6-37.2 21.9-38.4 22.2q-0.1 0.1-0.1 0.1z"/>
					</g>
					<g id="&lt;Group&gt;" style="opacity: .2">
						<path id="&lt;Path&gt;" class="s2" d="m211.7 33.6q-0.1 0-0.2-0.1c-10.3-2.5-21.8-22.6-22.3-23.5-0.1-0.2 0-0.6 0.2-0.7 0.3-0.1 0.6-0.1 0.7 0.2 0.1 0.2 11.8 20.6 21.7 23 0.3 0.1 0.4 0.4 0.4 0.7-0.1 0.2-0.3 0.4-0.5 0.4z"/>
					</g>
					<g id="&lt;Group&gt;" style="opacity: .2">
						<path id="&lt;Path&gt;" class="s2" d="m211.9 28.4q-0.1 0-0.2 0c-7.7-2.8-16.5-17.3-16.9-17.9-0.1-0.2 0-0.5 0.2-0.7 0.3-0.1 0.6 0 0.7 0.2 0.1 0.1 9 14.7 16.4 17.4 0.3 0.1 0.4 0.4 0.3 0.7-0.1 0.2-0.3 0.3-0.5 0.3z"/>
					</g>
					<g id="&lt;Group&gt;" style="opacity: .2">
						<path id="&lt;Path&gt;" class="s2" d="m114.7 135.1q-0.2 0-0.3-0.1c-19.8-15.8 8.6-51.4 18-63.1q1-1.3 1.6-2.1c6-7.7 11.6-24.2 11.7-24.4 0.1-0.3 0.4-0.4 0.6-0.3 0.3 0.1 0.4 0.4 0.4 0.6-0.3 0.7-5.8 16.8-11.9 24.8q-0.6 0.8-1.6 2c-9.2 11.5-37.1 46.5-18.2 61.7 0.2 0.2 0.3 0.5 0.1 0.7q-0.2 0.2-0.4 0.2z"/>
					</g>
					<g id="&lt;Group&gt;" style="opacity: .2">
						<path id="&lt;Path&gt;" class="s2" d="m129.3 140.5q-0.2 0-0.3-0.1c-9.7-5.9-14.9-13.6-15.4-22.7-0.8-14.5 10.4-28 14.3-31.1 5.5-4.2 19-27.7 19.1-28 0.1-0.2 0.5-0.3 0.7-0.2 0.2 0.2 0.3 0.5 0.2 0.7-0.6 1-13.7 24-19.3 28.3-3.3 2.6-14.7 16-14 30.2 0.5 8.8 5.5 16.2 14.9 22 0.3 0.1 0.4 0.4 0.2 0.7-0.1 0.1-0.3 0.2-0.4 0.2z"/>
					</g>
				</g>
			</g>
			<g id="&lt;Group&gt;">
				<g id="&lt;Group&gt;">
					<path id="&lt;Path&gt;" class="s3" d="m299.7 387.1c0 1.9-18.7 3.5-41.8 3.5-23.1 0-41.8-1.6-41.8-3.5 0-2 18.7-3.5 41.8-3.5 23.1 0 41.8 1.5 41.8 3.5z"/>
					<path id="&lt;Path&gt;" class="s3" d="m259.9 387.1h-4.1v-210.9h4.1z"/>
					<path id="&lt;Path&gt;" class="s3" d="m359.2 185.6c0 9.1-45.4 16.5-101.3 16.5-56 0-101.3-7.4-101.3-16.5 0-9.1 45.3-16.5 101.3-16.5 55.9 0 101.3 7.4 101.3 16.5z"/>
					<path id="&lt;Path&gt;" class="s4" d="m359.2 179.7c0 9.2-45.4 16.5-101.3 16.5-56 0-101.3-7.3-101.3-16.5 0-9.1 45.3-16.5 101.3-16.5 55.9 0 101.3 7.4 101.3 16.5z"/>
				</g>
				<path id="&lt;Path&gt;" class="s2" d="m147.9 168.6c0 0 36.3 15.8 70.2 17.1l5.4-11.7-62.7-23.4c0 0-16.9 6.2-12.9 18z"/>
				<path id="&lt;Path&gt;" class="s9" d="m223.5 174c0 0 17.1 1.9 17.7 6.5l-0.9 1.8-24.6 1.6c0 0 1.7-9.7 7.8-9.9z"/>
				<g id="&lt;Group&gt;">
					<g id="&lt;Group&gt;">
						<g id="&lt;Group&gt;">
							<path id="&lt;Path&gt;" class="s2" d="m252.2 186.7l100-0.1 13.9-75-99.4-0.7z"/>
							<path id="&lt;Path&gt;" class="s2" d="m213.9 188.7l138.3-2.1 1-7-139.3 2.1z"/>
						</g>
						<path id="&lt;Path&gt;" class="s15" d="m307.7 145.5c0.1 3.2 2.8 7.9 6.1 7.8 3.2-0.1 5.8-4.9 5.7-8.1-0.1-3.3-2.8-5.8-6-5.7-3.3 0-5.8 2.7-5.8 6z"/>
					</g>
					<path id="&lt;Path&gt;" class="s15" d="m248.6 186h-1.2v-3.4h1.2z"/>
					<path id="&lt;Path&gt;" class="s15" d="m251.4 186h-1.3v-3.4h1.3z"/>
					<g id="&lt;Group&gt;" style="opacity: .2">
						<path id="&lt;Path&gt;" class="s12" d="m255.7 186.3q0 0-0.1 0c-0.1 0-0.2-0.2-0.2-0.3l14.8-74.4c0-0.2 0.1-0.3 0.3-0.2 0.1 0 0.2 0.1 0.2 0.3l-14.8 74.4c0 0.1-0.1 0.2-0.2 0.2z"/>
					</g>
				</g>
			</g>
			<g id="&lt;Group&gt;">
				<g id="&lt;Group&gt;">
					<path id="&lt;Path&gt;" class="s16" d="m296.6 227.9c27.2-5.8 19.3 74.2 18.6 88.7-0.1 1.7 2.5 1.7 2.5 0 1.1-21.7 2.7-44.5-0.4-66-1.6-11.6-6.4-28.4-21.4-25.2-1.6 0.3-0.9 2.8 0.7 2.5z"/>
				</g>
				<g id="&lt;Group&gt;">
					<path id="&lt;Path&gt;" class="s16" d="m317 247.5c-7.7-5.6-13.4 2.6-14.7 9.6-3.4 17.6-0.9 37.3 2.2 54.8 0.3 1.6 2.8 0.9 2.5-0.7-1.8-10.4-3-20.8-3.2-31.3-0.1-4.5-0.2-39.1 11.9-30.1 1.3 1 2.6-1.3 1.3-2.3z"/>
				</g>
				<g id="&lt;Group&gt;">
					<path id="&lt;Path&gt;" class="s16" d="m312.9 247c0 0 5.7-11.6 17.1-7 11.3 4.7 17.8 37.8 16.1 45.2 0 0-40.1-16.8-42-22.2-1.9-5.4-1.7-14.9 8.8-16z"/>
					<path id="&lt;Path&gt;" class="s6" d="m346.3 285.1c-0.9-5.2-3.1-10-6-14.3l3.9 1.2c0.1 0 0.2 0 0.3-0.1 0-0.1-0.1-0.2-0.2-0.2l-4.3-1.4c-2.8-4.1-6.1-7.8-9.5-10.9l5.2 1c0.2 0 0.3 0 0.3-0.1 0-0.1-0.1-0.2-0.2-0.3l-5.8-1.1c-3.5-3.1-7-5.7-9.9-7.7l5.5 1c0.1 0.1 0.2 0 0.2-0.1 0-0.1 0-0.2-0.1-0.2l-6.4-1.2c-3.7-2.5-6.2-3.8-6.3-3.8l-0.2 0.3c0.1 0 2.7 1.4 6.4 3.8l0.5 5.6c0 0.1 0.1 0.2 0.2 0.2q0 0 0 0c0.1 0 0.2-0.1 0.2-0.2l-0.5-5.3c2.8 1.9 6.3 4.4 9.7 7.5l0.6 6c0 0.1 0 0.2 0.2 0.2q0 0 0 0c0.1 0 0.2-0.1 0.1-0.2l-0.4-5.5c3.4 3.1 6.9 6.8 9.7 10.9l-0.1 5.5c0 0.1 0.1 0.2 0.2 0.2q0 0 0 0c0.1 0 0.2-0.1 0.2-0.2l0.1-4.9c2.8 4.3 5.1 9.1 6 14.4z"/>
					<path id="&lt;Path&gt;" class="s17" d="m312.8 247.1c-10.4 1.1-10.5 10.5-8.7 15.9 1.9 5.4 42 22.2 42 22.2q0-0.1 0-0.1c-6.5-22.8-27.5-35-33.3-38z"/>
				</g>
				<g id="&lt;Group&gt;">
					<path id="&lt;Path&gt;" class="s16" d="m303.3 223.9c0 0-5.2-8.4-13.4-4-8.2 4.3-10.7 29.7-8.9 35.1 0 0 29-15.5 30-19.7 1-4.2 0.3-11.3-7.7-11.4z"/>
					<path id="&lt;Path&gt;" class="s6" d="m280.9 255c0.3-4 1.6-7.8 3.4-11.3l-2.8 1.2c-0.1 0.1-0.2 0.1-0.2 0-0.1-0.1 0-0.2 0.1-0.2l3.1-1.3c1.8-3.3 4.1-6.3 6.4-8.9l-3.9 1.1c-0.1 0-0.2 0-0.2-0.1 0-0.1 0-0.1 0.1-0.2l4.4-1.2c2.4-2.7 4.8-4.9 6.8-6.6l-4 1.2c-0.1 0.1-0.2 0-0.2-0.1 0 0 0-0.1 0.1-0.1l4.7-1.4c2.6-2.1 4.4-3.3 4.5-3.3l0.1 0.2c0 0.1-1.9 1.3-4.5 3.4v4.2q0 0.1-0.1 0.2 0 0 0 0c-0.1 0-0.2-0.1-0.2-0.2v-4c-2 1.6-4.4 3.8-6.8 6.4l0.1 4.5q0 0.1-0.2 0.1 0 0 0 0c-0.1 0-0.1 0-0.1-0.1l-0.1-4.2c-2.3 2.6-4.7 5.6-6.5 9l0.5 4.1c0 0-0.1 0.1-0.2 0.1q0 0 0 0c-0.1 0-0.1 0-0.1-0.1l-0.4-3.7c-1.9 3.5-3.2 7.3-3.5 11.3z"/>
					<path id="&lt;Path&gt;" class="s17" d="m303.3 223.9c8 0.1 8.7 7.2 7.7 11.4-1 4.2-30 19.7-30 19.7q0-0.1 0-0.1c3.3-17.6 18.2-28.3 22.3-31z"/>
				</g>
				<g id="&lt;Group&gt;">
					<path id="&lt;Path&gt;" class="s3" d="m278.6 307.5v40.8c0 13.6 11.2 24.8 24.8 24.8h12.8c13.7 0 24.8-11.2 24.8-24.8v-40.8z"/>
					<path id="&lt;Path&gt;" class="s6" d="m341 334v-26.5h-62.4v26.5z"/>
					<path id="&lt;Path&gt;" class="s3" d="m345.8 326h-71.9v-24.8h71.9z"/>
					<g id="&lt;Group&gt;">
						<path id="&lt;Path&gt;" class="s7" d="m280.9 314.2c0 1.3-0.9 2.4-2.1 2.4-1.2 0-2.1-1.1-2.1-2.4 0-1.3 0.9-2.4 2.1-2.4 1.2 0 2.1 1.1 2.1 2.4z"/>
						<path id="&lt;Path&gt;" class="s7" d="m296.3 314.2c0 1.3-0.9 2.4-2.1 2.4-1.2 0-2.1-1.1-2.1-2.4 0-1.3 0.9-2.4 2.1-2.4 1.2 0 2.1 1.1 2.1 2.4z"/>
						<path id="&lt;Path&gt;" class="s7" d="m311.7 314.2c0 1.3-1 2.4-2.2 2.4-1.1 0-2.1-1.1-2.1-2.4 0-1.3 1-2.4 2.1-2.4 1.2 0 2.2 1.1 2.2 2.4z"/>
						<path id="&lt;Path&gt;" class="s7" d="m327 314.2c0 1.3-0.9 2.4-2.1 2.4-1.2 0-2.1-1.1-2.1-2.4 0-1.3 0.9-2.4 2.1-2.4 1.2 0 2.1 1.1 2.1 2.4z"/>
						<path id="&lt;Path&gt;" class="s7" d="m342.4 314.2c0 1.3-1 2.4-2.1 2.4-1.2 0-2.1-1.1-2.1-2.4 0-1.3 0.9-2.4 2.1-2.4 1.1 0 2.1 1.1 2.1 2.4z"/>
					</g>
					<g id="&lt;Group&gt;">
						<path id="&lt;Path&gt;" class="s7" d="m288.6 342c0 1-0.7 1.8-1.6 1.8-0.9 0-1.6-0.8-1.6-1.8 0-1 0.7-1.8 1.6-1.8 0.9 0 1.6 0.8 1.6 1.8z"/>
						<path id="&lt;Path&gt;" class="s7" d="m300.1 342c0 1-0.7 1.8-1.6 1.8-0.9 0-1.6-0.8-1.6-1.8 0-1 0.7-1.8 1.6-1.8 0.9 0 1.6 0.8 1.6 1.8z"/>
						<path id="&lt;Path&gt;" class="s7" d="m311.6 342c0 1-0.7 1.8-1.6 1.8-0.9 0-1.6-0.8-1.6-1.8 0-1 0.7-1.8 1.6-1.8 0.9 0 1.6 0.8 1.6 1.8z"/>
						<path id="&lt;Path&gt;" class="s7" d="m323.1 342c0 1-0.7 1.8-1.6 1.8-0.8 0-1.5-0.8-1.5-1.8 0-1 0.7-1.8 1.5-1.8 0.9 0 1.6 0.8 1.6 1.8z"/>
						<path id="&lt;Path&gt;" class="s7" d="m334.7 342c0 1-0.8 1.8-1.6 1.8-0.9 0-1.6-0.8-1.6-1.8 0-1 0.7-1.8 1.6-1.8 0.8 0 1.6 0.8 1.6 1.8z"/>
					</g>
				</g>
				<g id="&lt;Group&gt;">
					<path id="&lt;Path&gt;" class="s16" d="m300.8 274.8c0 0-10.1-8.1-18.4 0.9-8.3 9-0.2 41.8 4.5 47.7 0 0 29.2-32.2 28.6-37.8-0.6-5.7-4.7-14.2-14.7-10.8z"/>
					<path id="&lt;Path&gt;" class="s6" d="m286.7 323.5c-1.4-5.2-1.5-10.4-0.7-15.6l-3 2.8c-0.1 0.1-0.2 0.1-0.3 0-0.1-0.1 0-0.2 0-0.3l3.4-3c0.8-4.9 2.2-9.7 4-13.9l-4.3 3.1c-0.1 0.1-0.3 0.1-0.3 0-0.1-0.1-0.1-0.2 0-0.3l4.9-3.5c1.8-4.3 3.9-8.2 5.7-11.2l-4.6 3.3c-0.1 0.1-0.2 0.1-0.2 0-0.1-0.1-0.1-0.2 0-0.3l5.3-3.8c2.2-3.7 4-6 4.1-6.1l0.3 0.2c-0.1 0.1-1.9 2.4-4.2 6.2l1.9 5.3c0.1 0.1 0 0.2-0.1 0.2q0 0 0 0c-0.1 0.1-0.2 0-0.2-0.1l-1.8-5c-1.8 3-3.8 6.7-5.7 11l2.1 5.6c0 0.1-0.1 0.2-0.1 0.2q-0.1 0-0.1 0c-0.1 0.1-0.2 0-0.2-0.1l-1.9-5.2c-1.8 4.3-3.4 9.1-4.2 14.1l2.4 4.9c0 0.1 0 0.2-0.1 0.2q0 0 0 0c-0.1 0.1-0.2 0.1-0.3 0l-2.1-4.4c-0.8 5.1-0.7 10.4 0.7 15.5z"/>
					<path id="&lt;Path&gt;" class="s17" d="m300.9 274.8c9.9-3.3 14 5.1 14.6 10.8 0.6 5.6-28.6 37.8-28.6 37.8q-0.1 0-0.1-0.1c-3.7-23.4 10.1-43.3 14.1-48.5z"/>
				</g>
			</g>
		</g>
	</g>
</svg>