<?xml version="1.0" encoding="utf-8"?>
<!-- Generator: Adobe Illustrator 27.5.0, SVG Export Plug-In . SVG Version: 6.00 Build 0)  -->
<svg version="1.1" xmlns="http://www.w3.org/2000/svg" xmlns:xlink="http://www.w3.org/1999/xlink" x="0px" y="0px"
	viewBox="0 0 500 500" style="enable-background:new 0 0 500 500;" xml:space="preserve">
	<g id="BACKGROUND">
		<rect style="fill:transparent;" width="500" height="500" />
	</g>
	<g id="OBJECTS">
		<g>
			<g>
				<g>
					<g>
						<path style="fill:#2192CE;" d="M278.157,177.926c8.382,8.382,13.01,18.806,13.585,28.579c0.559-0.482,1.108-0.979,1.638-1.509
						c11.679-11.679,11.679-30.614,0-42.293c-11.679-11.679-30.614-11.679-42.293,0c-0.53,0.53-1.028,1.08-1.509,1.638
						C259.351,164.917,269.775,169.545,278.157,177.926z" />
					</g>
					<g>
						<path style="fill:#168BBF;" d="M298.953,174.037c0.813,0.813,1.57,1.655,2.284,2.517c-1.272-5.075-3.888-9.882-7.856-13.851
						c-11.679-11.679-30.614-11.679-42.293,0c-0.53,0.53-1.028,1.08-1.509,1.638c3.244,0.191,6.559,0.838,9.848,1.911
						C272.498,160.947,288.904,163.989,298.953,174.037z" />
					</g>
				</g>
				<circle style="fill:#2192CE;" cx="271.148" cy="184.936" r="14.168" />
			</g>
			<g>
				<g>
					<g>
						<path style="fill:#D91277;" d="M221.845,177.926c8.382-8.382,18.806-13.009,28.579-13.585
						c-0.482-0.559-0.979-1.108-1.509-1.638c-11.679-11.679-30.614-11.679-42.293,0c-11.679,11.679-11.679,30.614,0,42.293
						c0.53,0.53,1.08,1.027,1.638,1.509C208.836,196.732,213.463,186.309,221.845,177.926z" />
					</g>
					<g>
						<g>
							<path style="fill:#C61074;" d="M209.166,192.611c-0.39-3.038-0.78-6.077-1.169-9.115c0.021-6.319,1.58-12.234,4.677-17.745
							c1.949-2.554,3.898-5.108,5.847-7.662c1.298-1.399,2.691-2.632,4.174-3.705c-5.886,1.008-11.529,3.776-16.073,8.319
							c-11.679,11.679-11.679,30.614,0,42.293c0.53,0.53,1.08,1.027,1.638,1.509c0.2-3.398,0.901-6.875,2.069-10.318
							C209.891,195.025,209.492,193.839,209.166,192.611z" />
						</g>
					</g>
				</g>
				<circle style="fill:#D91277;" cx="229.875" cy="184.892" r="14.168" />
			</g>
			<g>
				<g>
					<g>
						<g>
							<path style="fill:#232323;" d="M221.845,234.238c-8.382-8.382-13.01-18.806-13.585-28.579
							c-0.559,0.482-1.108,0.979-1.638,1.509c-11.679,11.679-11.679,30.614,0,42.293c11.679,11.679,30.614,11.679,42.293,0
							c0.53-0.53,1.027-1.08,1.509-1.638C240.651,247.248,230.227,242.62,221.845,234.238z" />
						</g>
					</g>
					<g>
						<g>
							<path d="M250.425,247.823c-2.905-0.171-5.867-0.709-8.817-1.588c-0.359,0.135-0.716,0.273-1.083,0.393
							c-0.388,0.171-0.776,0.342-1.172,0.5c-3.959,1.868-8.181,2.733-12.674,2.568c-1.896,0.07-3.743-0.049-5.544-0.341
							c-4.503-0.611-8.788-2.052-12.852-4.336c-0.85-0.649-1.7-1.297-2.55-1.946c-0.632-0.445-1.252-0.909-1.85-1.412
							c-1.087-0.83-2.174-1.659-3.262-2.489c-0.391-0.363-0.763-0.736-1.129-1.113c1.432,4.166,3.807,8.079,7.131,11.403
							c11.679,11.679,30.614,11.679,42.293,0C249.445,248.931,249.943,248.382,250.425,247.823z" />
						</g>
					</g>
				</g>
				<circle style="fill:#232323;" cx="229.678" cy="226.405" r="14.168" />
			</g>
			<g>
				<g>
					<g>
						<path style="fill:#F7C210;" d="M278.157,234.238c-8.382,8.382-18.806,13.009-28.579,13.585
						c0.482,0.559,0.979,1.108,1.509,1.638c11.679,11.679,30.614,11.679,42.293,0c11.679-11.679,11.679-30.614,0-42.293
						c-0.53-0.53-1.08-1.028-1.638-1.509C291.167,215.432,286.539,225.857,278.157,234.238z" />
					</g>
					<g>
						<g>
							<path style="fill:#EAB00F;" d="M301.977,225.239c-1.729,4.677-4.38,9.099-7.907,12.957
							c-9.295,10.167-24.277,12.589-36.947,8.402c-2.528,0.667-5.058,1.079-7.546,1.225c0.482,0.559,0.979,1.108,1.509,1.638
							c11.679,11.679,30.614,11.679,42.293,0C300.003,242.838,302.866,233.882,301.977,225.239z" />
						</g>
					</g>
				</g>
				<circle style="fill:#F7C210;" cx="271.393" cy="226.41" r="14.168" />
			</g>
		</g>
	</g>
	<g id="TEXTS">
		<g>
			<g>

				<text transform="matrix(1 0 0 1 108.2568 314.54)"
					style="font-family:'Montserrat-ExtraBold'; font-size:27.9852px; letter-spacing:4;">CULTURE
					LOGO</text>
				<g>

					<text transform="matrix(1 0 0 1 137.98 341.6367)"
						style="fill:#818384; font-family:'Montserrat-Regular'; font-size:17.0595px; letter-spacing:2;">YOUR
						SLOGAN HERE</text>
				</g>
			</g>
		</g>
	</g>
</svg>