<svg version="1.2" xmlns="http://www.w3.org/2000/svg" viewBox="0 0 16 24" width="16" height="24"><defs><linearGradient id="P" gradientUnits="userSpaceOnUse"/><linearGradient id="g1" x1="2.3" y1="5.5" x2="7.9" y2="-3.8" href="#P"><stop offset=".14" stop-color="#0193cc"/><stop offset=".88" stop-color="#01d0cc"/></linearGradient><linearGradient id="g2" x1="4.9" y1="7.5" x2="10.5" y2="-1.7" href="#P"><stop offset=".14" stop-color="#0193cc"/><stop offset=".88" stop-color="#01d0cc"/></linearGradient><linearGradient id="g3" x1="9" y1="2.9" x2="20.1" y2="16.3" href="#P"><stop offset=".1" stop-color="#662d91"/><stop offset=".83" stop-color="#f0f"/></linearGradient><linearGradient id="g4" x1="6.6" y1="8.2" x2="12.2" y2="-1" href="#P"><stop offset=".14" stop-color="#0193cc"/><stop offset=".88" stop-color="#01d0cc"/></linearGradient></defs><style>.a{fill:#0b1f33}.b{fill:#f0f}.c{fill:#fff}.d{fill:url(#g1)}.e{fill:url(#g2)}.f{fill:url(#g3)}.g{fill:url(#g4)}</style><g style="display:none"><path class="a" d="m-4.6-16.5h67.1v66h-67.1z"/></g><g style="display:none"><path class="b" d="m13.6 21c0.4 0 0.6-0.2 0.6-0.4 0-0.6-0.9-0.4-0.9-0.7 0-0.1 0.1-0.2 0.3-0.2 0.2 0 0.3 0.1 0.4 0.1l0.1-0.2c-0.1-0.1-0.3-0.1-0.5-0.1-0.4 0-0.6 0.2-0.6 0.4 0 0.6 0.9 0.4 0.9 0.7 0 0.1-0.1 0.2-0.3 0.2-0.2 0-0.4-0.1-0.5-0.2l-0.1 0.2c0.1 0.1 0.4 0.2 0.6 0.2zm3.4 0v-1.5h-0.2l-0.6 1-0.6-1h-0.2v1.5h0.2v-1l0.5 0.8h0.2l0.5-0.8v1zm2.4 0h0.3l-0.7-1.5h-0.3l-0.6 1.5h0.2l0.2-0.3h0.7zm-0.8-0.6l0.3-0.6 0.3 0.6zm3.5 0.6l-0.4-0.5c0.2-0.1 0.4-0.3 0.4-0.5 0-0.3-0.3-0.5-0.7-0.5h-0.6v1.5h0.3v-0.5h0.3c0 0 0.1 0 0.1 0l0.3 0.5zm-0.3-1c0 0.2-0.2 0.3-0.4 0.3h-0.3v-0.6h0.3c0.2 0 0.4 0.1 0.4 0.3zm1.8 1h0.2v-1.3h0.5v-0.2h-1.2v0.2h0.5zm4 0c0.3 0 0.5-0.1 0.6-0.2l-0.1-0.2c-0.1 0.1-0.3 0.2-0.4 0.2-0.4 0-0.6-0.2-0.6-0.5 0-0.3 0.2-0.5 0.6-0.5 0.1 0 0.3 0 0.4 0.1l0.1-0.1c-0.1-0.2-0.3-0.3-0.6-0.3-0.4 0-0.8 0.3-0.8 0.8 0 0.4 0.4 0.7 0.8 0.7zm2.9-1.5v0.6h-0.8v-0.6h-0.3v1.5h0.3v-0.6h0.8v0.6h0.3v-1.5zm2.2 1.5c0.5 0 0.9-0.3 0.9-0.7 0-0.5-0.4-0.8-0.9-0.8-0.4 0-0.8 0.3-0.8 0.8 0 0.4 0.4 0.7 0.8 0.7zm0-0.2c-0.3 0-0.5-0.2-0.5-0.5 0-0.3 0.2-0.5 0.5-0.5 0.3 0 0.6 0.2 0.6 0.5 0 0.3-0.3 0.5-0.6 0.5zm2.1 0.2h0.2v-1.5h-0.2zm2.2 0.1c0.3 0 0.5-0.1 0.6-0.3l-0.1-0.2c-0.1 0.2-0.3 0.2-0.4 0.2-0.4 0-0.6-0.2-0.6-0.5 0-0.3 0.2-0.5 0.6-0.5 0.1 0 0.3 0 0.4 0.2l0.1-0.2c-0.1-0.2-0.3-0.3-0.6-0.3-0.4 0-0.8 0.4-0.8 0.8 0 0.4 0.4 0.8 0.8 0.8zm2.1-0.3v-0.4h0.7v-0.2h-0.7v-0.4h0.8v-0.2h-1.1v1.4h1.1v-0.2zm2.6 0.3c0.4 0 0.6-0.2 0.6-0.5 0-0.5-0.9-0.3-0.9-0.6 0-0.1 0.1-0.2 0.3-0.2 0.1 0 0.3 0 0.4 0.1l0.1-0.2c-0.1-0.1-0.3-0.2-0.5-0.2-0.4 0-0.6 0.2-0.6 0.5 0 0.5 0.9 0.3 0.9 0.6 0 0.1-0.1 0.2-0.3 0.2-0.2 0-0.4 0-0.5-0.1l-0.1 0.2c0.1 0.1 0.3 0.2 0.6 0.2z"/><path class="c" d="m14.6 18.1c1.2 0 1.7-0.6 1.7-1.2 0-1.5-2.4-1-2.4-1.8 0-0.3 0.2-0.6 0.8-0.6 0.4 0 0.8 0.1 1.2 0.3l0.2-0.6c-0.3-0.2-0.8-0.3-1.3-0.3-1.2 0-1.7 0.5-1.7 1.2 0 1.5 2.4 0.9 2.4 1.8 0 0.3-0.2 0.5-0.9 0.5-0.5 0-1-0.2-1.3-0.4l-0.3 0.6c0.3 0.3 1 0.5 1.6 0.5zm4.7 0c1.2 0 1.8-0.7 1.8-1.9v-2.3h-0.7v2.3c0 0.8-0.4 1.2-1.1 1.2-0.6 0-1-0.4-1-1.2v-2.3h-0.8v2.3c0 1.2 0.7 1.9 1.8 1.9zm6.9-0.1l-0.9-1.3c0.5-0.2 0.8-0.7 0.8-1.3 0-0.9-0.6-1.5-1.7-1.5h-1.7v4.1h0.8v-1.2h0.9c0 0 0.1 0 0.1 0l0.9 1.2zm-0.9-2.6c0 0.5-0.3 0.8-1 0.8h-0.9v-1.6h0.9c0.7 0 1 0.3 1 0.8zm5.2-1.5l-1.4 3.2-1.4-3.2h-0.8l1.8 4.1h0.7l1.8-4.1zm2.5 3.5v-1.2h2v-0.6h-2v-1h2.2v-0.7h-3v4.1h3.1v-0.6zm7.1-3.5h-0.8l-1.2 2-1.2-2h-0.9l1.7 2.7v1.4h0.7v-1.4zm0.9 4h0.8v-4h-0.8zm5.3-4.1v2.8l-2.3-2.8h-0.6v4.1h0.8v-2.8l2.3 2.8h0.6v-4.1z"/></g><path class="d" d="m9.5 6.9l-3.1 1.8c-0.5 0.3-1 0-1-0.5v-2.7c0-0.2 0.1-0.4 0.3-0.5l3.1-1.8c0.4-0.3 1 0 1 0.5v2.7c0 0.2-0.1 0.4-0.3 0.5z"/><path class="e" d="m14.6 3.4l-2.7 1.6c-0.4 0.2-0.9 0-0.9-0.5v-2.3c0-0.2 0.1-0.4 0.3-0.5l2.7-1.6c0.4-0.2 0.9 0 0.9 0.5v2.3c0 0.2-0.1 0.4-0.3 0.5z"/><path class="f" d="m10.9 16.4l-10.2-5.9-0.1-0.1q-0.1 0-0.1-0.1c-0.1-0.1-0.1-0.3 0-0.4 0 0-0.5 0.3-0.5 0.8v6.8c0 0.5 0.3 0.9 0.7 1.1l8.9 5.2c0.9 0.5 2-0.1 2-1.1v-5.2c0-0.4-0.3-0.8-0.7-1.1z"/><path class="c" d="m11.4 6.8l1.3-0.8v-0.7q0 0 0-0.1l-0.8 0.4c-0.4 0.3-0.9 0-0.9-0.5v-1q-0.1 0.1-0.2 0.1l-0.5 0.3v2.5c0 0.2-0.1 0.5-0.3 0.6l-3.5 2c-0.5 0.3-1.1 0-1.1-0.6v-1.6l-3.9 2.2h-0.1c0 0.2-0.1 0.3 0 0.5q0.1 0 0.1 0l0.1 0.1 6.4 3.7 4.1-2.3q0.4-0.3 0.5-0.7l-0.4 0.3c-0.6 0.3-1.2-0.1-1.2-0.7v-3.1c0-0.2 0.1-0.5 0.4-0.6z"/><path class="g" d="m15.6 8.5l-3.5 2c-0.5 0.3-1.1 0-1.1-0.6v-3c0-0.2 0.1-0.5 0.3-0.6l3.5-2.1c0.5-0.2 1.2 0.1 1.2 0.7v3c0 0.2-0.2 0.5-0.4 0.6z"/></svg>